<?xml version="1.0" encoding="utf-8"?>
<!-- Generator: Adobe Illustrator 16.0.0, SVG Export Plug-In . SVG Version: 6.00 Build 0)  -->
<!DOCTYPE svg PUBLIC "-//W3C//DTD SVG 1.1//EN" "http://www.w3.org/Graphics/SVG/1.1/DTD/svg11.dtd">
<svg version="1.1" id="Layer_1" xmlns="http://www.w3.org/2000/svg" xmlns:xlink="http://www.w3.org/1999/xlink" x="0px" y="0px"
	 width="153.742px" height="74.035px" viewBox="0 0 153.742 74.035" enable-background="new 0 0 153.742 74.035"
	 xml:space="preserve">
<g>
	<path fill="none" d="M54.943,42.775l-4.455,7.396h8.861C58.647,47.274,57.085,44.716,54.943,42.775z"/>
	<path fill="none" d="M62.085,33.467l-0.725-1.348l-2.886,4.792C59.965,36.107,61.208,34.911,62.085,33.467z"/>
	<path fill="none" d="M58.344,25.981l-1.857-5.34c-0.629,0.132-1.543,0.432-2.072,1.006c-0.555,0.6-1.306,0.907-2.064,0.92
		l2.529,4.551c0.497,0.896,0.174,2.025-0.722,2.523c-0.285,0.16-0.595,0.233-0.9,0.233c-0.652,0-1.284-0.344-1.624-0.955
		l-4.046-7.285c-1.872,1.73-3.052,4.197-3.052,6.941c0,1.697,0.455,3.287,1.241,4.666c2.562,0.083,5.012,0.619,7.253,1.565
		L58.344,25.981z"/>
	<path fill="none" d="M60.368,40.1c2.467,2.787,4.189,6.247,4.844,10.071h5.855l-7.033-13.079
		C63.006,38.302,61.766,39.325,60.368,40.1z"/>
	<path fill="none" d="M19.519,21.575l-2.875,4.773h5.719C21.909,24.479,20.901,22.829,19.519,21.575z"/>
	<path fill="none" d="M11.745,29.119c-0.329-0.583-0.319-1.298,0.026-1.872l4.564-7.58c-0.99-0.352-2.051-0.555-3.161-0.555
		c-5.218,0-9.463,4.246-9.463,9.464c0,5.218,4.245,9.463,9.463,9.463c4.713,0,8.62-3.465,9.336-7.979h-9.15
		C12.691,30.06,12.074,29.7,11.745,29.119z"/>
	<polygon fill="none" points="33.122,24.456 40.138,12.803 26.856,12.803 	"/>
	<path fill="none" d="M21.462,18.348c2.429,1.972,4.134,4.791,4.685,8.001h3.779l-6.265-11.651L21.462,18.348z"/>
	<path fill="none" d="M67.018,30.496l9.001,16.743l10.603-17.61c-0.011-0.147-0.014-0.296-0.022-0.443H67.143
		C67.122,29.628,67.081,30.065,67.018,30.496z"/>
	<path fill="none" d="M140.567,19.112c-1.14,0-2.229,0.213-3.243,0.585l4.123,7.421c0.498,0.896,0.176,2.025-0.72,2.523
		c-0.285,0.16-0.595,0.233-0.9,0.233c-0.651,0-1.285-0.344-1.623-0.955l-4.048-7.285c-1.871,1.73-3.052,4.197-3.052,6.941
		c0,5.218,4.246,9.463,9.463,9.463c5.219,0,9.465-4.245,9.465-9.463C150.032,23.358,145.786,19.112,140.567,19.112z"/>
	<polygon fill="none" points="119.691,24.456 126.708,12.803 113.426,12.803 	"/>
	<path fill="none" d="M108.031,18.348c2.431,1.972,4.135,4.791,4.686,8.001h3.779l-6.267-11.651L108.031,18.348z"/>
	<path fill="none" d="M91.348,32.926c0.841,1.614,2.129,2.953,3.702,3.856l-2.892-5.202L91.348,32.926z"/>
	<path fill="none" d="M108.611,55.274c-0.442,0.246-0.922,0.362-1.394,0.362c-1.01,0-1.991-0.535-2.517-1.48l-6.27-11.286
		c-2.899,2.681-4.729,6.503-4.729,10.753c0,8.085,6.577,14.663,14.662,14.663c8.084,0,14.663-6.578,14.663-14.663
		c0-8.086-6.579-14.663-14.663-14.663c-0.192,0-0.379,0.019-0.569,0.026c-1.136,0.881-2.419,1.574-3.807,2.05l5.74,10.328
		C110.5,52.752,109.999,54.501,108.611,55.274z"/>
	<path fill="none" d="M103.213,26.349h5.72c-0.453-1.87-1.462-3.52-2.844-4.773L103.213,26.349z"/>
	<path fill="none" d="M45.114,38.959c-8.085,0-14.662,6.577-14.662,14.663c0,8.085,6.577,14.663,14.662,14.663
		c7.301,0,13.355-5.37,14.464-12.363H45.402c-1.037,0-1.994-0.558-2.503-1.459c-0.51-0.903-0.494-2.012,0.04-2.9l6.426-10.67
		c-1.23-0.464-2.372-1.104-3.396-1.895C45.685,38.98,45.403,38.959,45.114,38.959z"/>
	<path fill="none" d="M107.97,33.229c0.547-0.965,0.929-2.034,1.109-3.169H99.93c-0.669,0-1.287-0.36-1.616-0.941
		c-0.328-0.583-0.318-1.298,0.027-1.872l4.563-7.58c-0.99-0.352-2.051-0.555-3.161-0.555c-2.512,0-4.794,0.991-6.49,2.595
		l7.265,13.076C102.818,33.82,105.335,33.28,107.97,33.229z"/>
	<path fill="#C0C0C0" d="M45.969,38.999c1.024,0.79,2.166,1.431,3.396,1.895l0.646-1.074C48.734,39.366,47.378,39.084,45.969,38.999
		z"/>
	<path fill="#C0C0C0" d="M62.546,20.56l1,2.875h2.582c-0.446-1.048-1.033-2.019-1.722-2.906c-0.104,0.011-0.208,0.031-0.316,0.031
		H62.546z"/>
	<path fill="#C0C0C0" d="M66.312,29.185l0.706,1.311c0.063-0.431,0.104-0.868,0.125-1.311H66.312z"/>
	<path fill="#C0C0C0" d="M58.474,36.91l-0.52,0.865c0.87,0.705,1.672,1.488,2.414,2.325c1.397-0.775,2.638-1.798,3.666-3.008
		l-1.949-3.625C61.208,34.911,59.965,36.107,58.474,36.91z"/>
	<path fill="#C0C0C0" d="M45.776,33.243c-0.786-1.379-1.241-2.969-1.241-4.666c0-2.744,1.181-5.21,3.052-6.941l4.046,7.285
		c0.339,0.61,0.972,0.955,1.624,0.955c0.305,0,0.615-0.074,0.9-0.233c0.896-0.498,1.219-1.627,0.722-2.523l-2.529-4.551
		c-0.016,0-0.032,0.005-0.048,0.005c-0.697,0-1.396-0.252-1.95-0.763c-1.167-1.077-1.239-2.896-0.163-4.063
		c1.119-1.212,2.498-1.921,3.708-2.339c-1.757,0.014-3.433,0.371-4.963,1.01L43.11,5.935c1.555-0.462,3.491-1.295,4.963-2.768
		c0.724-0.725,0.724-1.9,0-2.624c-0.725-0.725-1.899-0.725-2.624,0c-1.894,1.894-5.321,2.244-5.351,2.248
		c-0.625,0.057-1.179,0.426-1.473,0.98c-0.293,0.555-0.286,1.22,0.019,1.769l1.973,3.553H25.071l-0.645-1.855h0.996
		c1.025,0,1.856-0.831,1.856-1.856c0-1.024-0.831-1.855-1.856-1.855h-4.639c-0.031,0-0.062,0.001-0.093,0.002
		c-0.267,0.013-2.658,0.18-4.24,1.893c-0.695,0.753-0.648,1.927,0.105,2.623c0.356,0.33,0.808,0.492,1.258,0.492
		c0.5,0,0.998-0.201,1.364-0.597c0.341-0.371,0.931-0.563,1.337-0.649l1.199,3.446l-3.43,5.697
		c-1.572-0.664-3.297-1.032-5.109-1.032C5.911,15.401,0,21.312,0,28.577c0,7.264,5.911,13.175,13.174,13.175
		c6.763,0,12.345-5.124,13.086-11.691h6.77c0.001,0,0.001,0,0.001,0s0,0,0,0c0.154,0,0.308-0.021,0.46-0.06
		c0.063-0.017,0.122-0.048,0.182-0.07c0.079-0.03,0.159-0.05,0.234-0.091c0.007-0.004,0.012-0.009,0.019-0.012
		c0.026-0.015,0.048-0.034,0.073-0.051c0.101-0.061,0.193-0.13,0.278-0.206c0.032-0.029,0.061-0.061,0.091-0.094
		c0.075-0.079,0.142-0.164,0.201-0.253c0.015-0.021,0.035-0.039,0.049-0.062l8.919-14.812l2.208,3.972
		c-2.998,2.417-4.923,6.113-4.923,10.255c0,1.743,0.348,3.404,0.966,4.928c1.084-0.179,2.19-0.295,3.324-0.295
		C45.337,33.209,45.554,33.236,45.776,33.243z M19.519,21.575c1.382,1.253,2.39,2.904,2.844,4.773h-5.719L19.519,21.575z
		 M13.174,38.04c-5.218,0-9.463-4.245-9.463-9.463c0-5.218,4.245-9.464,9.463-9.464c1.11,0,2.171,0.203,3.161,0.555l-4.564,7.58
		c-0.345,0.574-0.355,1.289-0.026,1.872c0.33,0.582,0.947,0.941,1.616,0.941h9.15C21.794,34.574,17.887,38.04,13.174,38.04z
		 M26.147,26.349c-0.55-3.21-2.255-6.029-4.685-8.001l2.198-3.65l6.265,11.651H26.147z M33.122,24.456l-6.265-11.653h13.281
		L33.122,24.456z"/>
	<path fill="#C0C0C0" d="M86.89,29.185H86.6c0.009,0.147,0.012,0.296,0.022,0.443L86.89,29.185z"/>
	<path fill="#C0C0C0" d="M95.579,37.734l-0.529-0.952c-1.573-0.903-2.861-2.243-3.702-3.856l-2.13,3.54
		c1.072,1.427,2.424,2.63,3.979,3.527C93.93,39.179,94.726,38.422,95.579,37.734z"/>
	<path fill="#C0C0C0" d="M103.34,39.866l0.649,1.17c1.388-0.476,2.671-1.169,3.807-2.05
		C106.236,39.049,104.739,39.352,103.34,39.866z"/>
	<path fill="#C0C0C0" d="M87.624,23.416c-0.002,0.007-0.006,0.013-0.009,0.019h0.02L87.624,23.416z"/>
	<path fill="#C0C0C0" d="M140.567,15.401c-1.793,0-3.504,0.363-5.064,1.016L129.68,5.935c1.555-0.462,3.491-1.295,4.963-2.768
		c0.725-0.725,0.725-1.9,0-2.624c-0.724-0.725-1.898-0.725-2.623,0c-1.894,1.894-5.322,2.244-5.352,2.248
		c-0.625,0.057-1.18,0.426-1.472,0.98c-0.294,0.555-0.286,1.22,0.019,1.769l1.973,3.553h-15.547l-0.645-1.855h0.996
		c1.025,0,1.855-0.831,1.855-1.856c0-1.024-0.83-1.855-1.855-1.855h-4.64c-0.032,0-0.062,0.001-0.093,0.002
		c-0.268,0.013-2.658,0.18-4.239,1.893c-0.695,0.753-0.649,1.927,0.104,2.623c0.357,0.33,0.808,0.492,1.259,0.492
		c0.498,0,0.997-0.201,1.363-0.597c0.342-0.371,0.932-0.563,1.338-0.649l1.197,3.446l-3.43,5.697
		c-1.572-0.664-3.297-1.032-5.109-1.032c-0.726,0-1.434,0.075-2.127,0.188c-1.985,1.469-4.232,2.392-6.121,2.953l1.758,3.165
		c1.696-1.604,3.979-2.595,6.49-2.595c1.11,0,2.171,0.203,3.161,0.555l-4.563,7.58c-0.346,0.574-0.355,1.289-0.027,1.872
		c0.329,0.582,0.947,0.941,1.616,0.941h9.149c-0.181,1.136-0.562,2.205-1.109,3.169c0.134-0.003,0.263-0.02,0.396-0.02
		c1.221,0,2.412,0.126,3.573,0.334c0.449-1.096,0.754-2.264,0.892-3.483h6.77c0.001,0,0.001,0,0.001,0
		c0.154,0,0.309-0.021,0.461-0.06c0.063-0.017,0.122-0.048,0.182-0.07c0.08-0.03,0.16-0.05,0.234-0.091
		c0.007-0.004,0.013-0.009,0.02-0.012c0.025-0.015,0.048-0.034,0.073-0.051c0.1-0.061,0.192-0.13,0.277-0.206
		c0.031-0.029,0.062-0.061,0.092-0.094c0.075-0.079,0.142-0.164,0.2-0.253c0.016-0.021,0.035-0.039,0.051-0.062l8.917-14.812
		l2.208,3.972c-2.997,2.417-4.922,6.113-4.922,10.255c0,7.264,5.91,13.175,13.174,13.175c7.266,0,13.175-5.911,13.175-13.175
		C153.742,21.312,147.833,15.401,140.567,15.401z M103.213,26.349l2.876-4.773c1.382,1.253,2.391,2.904,2.844,4.773H103.213z
		 M112.717,26.349c-0.551-3.21-2.255-6.029-4.686-8.001l2.198-3.65l6.267,11.651H112.717z M119.691,24.456l-6.266-11.653h13.282
		L119.691,24.456z M140.567,38.04c-5.217,0-9.463-4.245-9.463-9.463c0-2.744,1.181-5.21,3.052-6.941l4.048,7.285
		c0.338,0.61,0.972,0.955,1.623,0.955c0.306,0,0.615-0.074,0.9-0.233c0.896-0.498,1.218-1.627,0.72-2.523l-4.123-7.421
		c1.014-0.372,2.104-0.585,3.243-0.585c5.219,0,9.465,4.246,9.465,9.464C150.032,33.794,145.786,38.04,140.567,38.04z"/>
	<path fill="#FF6633" d="M97.616,15.59c0.545-0.405,1.077-0.843,1.568-1.335c1.123-1.123,1.123-2.942,0-4.065
		c-1.122-1.124-2.941-1.124-4.064,0c-2.936,2.935-8.245,3.478-8.29,3.482c-0.969,0.088-1.826,0.659-2.282,1.52
		c-0.454,0.859-0.443,1.891,0.028,2.74l3.048,5.485C89.367,19.338,93.114,16.326,97.616,15.59z"/>
	<path fill="#FF6633" d="M90.281,28.577c0,1.568,0.39,3.045,1.066,4.349l0.811-1.345l2.892,5.202
		c1.386,0.795,2.985,1.257,4.693,1.257c3.528,0,6.603-1.942,8.227-4.81c-2.635,0.051-5.151,0.591-7.452,1.554l-7.265-13.076
		C91.428,23.435,90.281,25.872,90.281,28.577z"/>
	<path fill="#FF6633" d="M107.796,38.986c0.19-0.008,0.377-0.026,0.569-0.026c8.084,0,14.663,6.577,14.663,14.663
		c0,8.085-6.579,14.663-14.663,14.663c-8.085,0-14.662-6.578-14.662-14.663c0-4.25,1.829-8.072,4.729-10.753l6.27,11.286
		c0.525,0.945,1.507,1.48,2.517,1.48c0.472,0,0.951-0.116,1.394-0.362c1.388-0.772,1.889-2.521,1.118-3.91l-5.74-10.328
		c-1.334,0.455-2.759,0.716-4.246,0.716c-2.383,0-4.615-0.646-6.547-1.759c-3.257,3.616-5.244,8.393-5.244,13.63
		c0,11.256,9.158,20.412,20.413,20.412s20.412-9.156,20.412-20.412c0-10.033-7.284-18.382-16.839-20.079
		C111.057,35.704,109.613,37.575,107.796,38.986z"/>
	<path fill="#FF6633" d="M62.085,33.467c0.868-1.429,1.378-3.1,1.378-4.89c0-5.218-4.247-9.464-9.465-9.464
		c-1.14,0-2.229,0.213-3.243,0.585l1.595,2.87c0.758-0.013,1.509-0.32,2.064-0.92c0.529-0.574,1.443-0.874,2.072-1.006l1.857,5.34
		l-5.314,8.826c-2.242-0.946-4.691-1.482-7.253-1.565c1.63,2.86,4.702,4.797,8.222,4.797c1.618,0,3.143-0.409,4.476-1.129
		l2.886-4.792L62.085,33.467z"/>
	<path fill="#FF6633" d="M64.405,20.528c1.438-0.16,2.559-1.364,2.559-2.844c0-1.588-1.287-2.875-2.875-2.875h-7.188
		c-0.047,0-0.095,0.001-0.143,0.003c-0.225,0.011-1.423,0.097-2.862,0.594c0.034,0,0.067-0.005,0.102-0.005
		C58.231,15.401,61.994,17.416,64.405,20.528z"/>
	<path fill="#FF6633" d="M76.019,47.239l-9.001-16.743c-0.367,2.492-1.423,4.759-2.983,6.596l7.033,13.079h-5.855
		c-0.655-3.824-2.377-7.284-4.844-10.071c-1.89,1.05-4.06,1.651-6.37,1.651c-1.633,0-3.189-0.312-4.634-0.858l-6.426,10.67
		c-0.534,0.889-0.55,1.997-0.04,2.9c0.51,0.901,1.467,1.459,2.503,1.459h14.176c-1.109,6.993-7.163,12.363-14.464,12.363
		c-8.085,0-14.662-6.578-14.662-14.663c0-8.086,6.577-14.663,14.662-14.663c0.289,0,0.571,0.021,0.855,0.039
		c-1.838-1.421-3.294-3.309-4.179-5.494c-9.676,1.596-17.088,9.998-17.088,20.118c0,11.256,9.157,20.412,20.413,20.412
		c10.478,0,19.126-7.938,20.274-18.112h10.489c0.001,0,0.001,0,0.001,0c0.001,0,0.001,0,0.001,0c0.238,0,0.478-0.032,0.714-0.093
		c0.098-0.025,0.188-0.074,0.282-0.109c0.122-0.046,0.246-0.077,0.364-0.14c0.01-0.007,0.018-0.015,0.029-0.02
		c0.039-0.021,0.073-0.054,0.113-0.077c0.155-0.096,0.299-0.203,0.429-0.321c0.051-0.046,0.095-0.095,0.143-0.145
		c0.116-0.122,0.22-0.254,0.312-0.393c0.022-0.033,0.054-0.061,0.075-0.095l10.878-18.065c-1.456-1.938-2.391-4.284-2.596-6.837
		L76.019,47.239z M50.489,50.171l4.455-7.396c2.142,1.941,3.704,4.499,4.407,7.396H50.489z"/>
	<path fill="#FF6633" d="M67.143,29.185H86.6c-0.009-0.203-0.03-0.403-0.03-0.608c0-1.824,0.373-3.562,1.046-5.142H66.127
		c0.672,1.581,1.046,3.318,1.046,5.142C67.173,28.782,67.151,28.982,67.143,29.185z"/>
	<path fill="#B8581D" d="M50.352,21.81c0.554,0.511,1.252,0.763,1.95,0.763c0.016,0,0.033-0.005,0.048-0.005l-1.595-2.87
		c1.014-0.372,2.104-0.585,3.243-0.585c5.218,0,9.465,4.246,9.465,9.464c0,1.791-0.51,3.461-1.378,4.89l1.949,3.625
		c1.56-1.837,2.617-4.104,2.983-6.596l-0.706-1.311h0.831c0.009-0.203,0.031-0.403,0.031-0.608c0-1.824-0.374-3.562-1.046-5.142
		h-2.582l-1-2.875h1.543c0.108,0,0.211-0.02,0.316-0.031c-2.412-3.112-6.174-5.127-10.407-5.127c-0.034,0-0.067,0.005-0.102,0.005
		c-1.209,0.418-2.588,1.127-3.708,2.339C49.112,18.914,49.185,20.732,50.352,21.81z"/>
	<path fill="#B8581D" d="M45.969,38.999c1.409,0.086,2.766,0.367,4.042,0.82l-0.646,1.074c1.444,0.546,3.001,0.858,4.634,0.858
		c2.31,0,4.48-0.602,6.37-1.651c-0.742-0.837-1.544-1.62-2.414-2.325l0.52-0.865c-1.333,0.72-2.858,1.129-4.476,1.129
		c-3.521,0-6.592-1.937-8.222-4.797c-0.222-0.007-0.438-0.033-0.662-0.033c-1.134,0-2.24,0.117-3.324,0.295
		C42.674,35.689,44.13,37.578,45.969,38.999z"/>
	<path fill="#B8581D" d="M107.97,33.229c-1.624,2.868-4.698,4.81-8.227,4.81c-1.708,0-3.308-0.462-4.693-1.257l0.529,0.952
		c-0.854,0.688-1.649,1.445-2.383,2.259c1.932,1.112,4.164,1.759,6.547,1.759c1.487,0,2.912-0.261,4.246-0.716l-0.649-1.17
		c1.399-0.514,2.896-0.816,4.456-0.88c1.817-1.411,3.261-3.282,4.143-5.442c-1.161-0.208-2.353-0.334-3.573-0.334
		C108.232,33.209,108.104,33.227,107.97,33.229z"/>
	<path fill="#B8581D" d="M90.281,28.577c0-2.705,1.146-5.142,2.972-6.869l-1.758-3.165c1.889-0.562,4.136-1.484,6.121-2.953
		c-4.502,0.736-8.249,3.749-9.992,7.826l0.011,0.019h-0.02c-0.673,1.581-1.046,3.318-1.046,5.142c0,0.205,0.021,0.405,0.03,0.608
		h0.29l-0.268,0.443c0.205,2.554,1.14,4.899,2.596,6.837l2.13-3.54C90.671,31.622,90.281,30.145,90.281,28.577z"/>
</g>
</svg>
