<?xml version="1.0" encoding="utf-8"?>
<!-- Generator: Adobe Illustrator 16.0.0, SVG Export Plug-In . SVG Version: 6.00 Build 0)  -->
<!DOCTYPE svg PUBLIC "-//W3C//DTD SVG 1.1//EN" "http://www.w3.org/Graphics/SVG/1.1/DTD/svg11.dtd">
<svg version="1.1" id="Layer_1" xmlns="http://www.w3.org/2000/svg" xmlns:xlink="http://www.w3.org/1999/xlink" x="0px" y="0px"
	 width="40px" height="40px" viewBox="0 0 40 40" enable-background="new 0 0 40 40" xml:space="preserve">
<path fill-rule="evenodd" clip-rule="evenodd" fill="#F47527" d="M5,0h30c2.762,0,5,2.238,5,5v30c0,2.762-2.238,5-5,5H5
	c-2.762,0-5-2.238-5-5V5C0,2.238,2.238,0,5,0z"/>
<path fill="#FFFFFF" d="M16.026,10.81c0,0.756,0,4.131,0,4.131h-3.025v5.051h3.025v15.011h6.216v-15.01h4.171
	c0,0,0.391-2.423,0.58-5.07c-0.543,0-4.728,0-4.728,0s0-2.939,0-3.454c0-0.517,0.678-1.211,1.348-1.211c0.668,0,2.079,0,3.386,0
	c0-0.688,0-3.063,0-5.259c-1.744,0-3.729,0-4.604,0C15.873,4.998,16.026,10.055,16.026,10.81z"/>
</svg>
