<?xml version="1.0" encoding="utf-8"?>
<!-- Generator: Adobe Illustrator 16.0.0, SVG Export Plug-In . SVG Version: 6.00 Build 0)  -->
<!DOCTYPE svg PUBLIC "-//W3C//DTD SVG 1.1//EN" "http://www.w3.org/Graphics/SVG/1.1/DTD/svg11.dtd">
<svg version="1.1" id="Layer_1" xmlns="http://www.w3.org/2000/svg" xmlns:xlink="http://www.w3.org/1999/xlink" x="0px" y="0px"
	 width="122px" height="75px" viewBox="0 0 122 75" enable-background="new 0 0 122 75" xml:space="preserve">
<ellipse fill="none" cx="61" cy="43.5" rx="13.74" ry="13.7"/>
<path fill="none" d="M89.99,28.069c1.072,1.979,1.943,4.078,2.602,6.272c-0.009,0.005-0.017,0.011-0.025,0.016
	c1.414,0.681,2.994,1.073,4.67,1.073c5.947,0,10.77-4.808,10.77-10.738s-4.822-10.738-10.77-10.738
	c-5.949,0-10.77,4.808-10.77,10.738c0,1.303,0.244,2.547,0.671,3.703C88.045,28.429,88.994,28.33,89.99,28.069z"/>
<path fill="none" d="M24.765,13.954c-5.949,0-10.77,4.808-10.77,10.738s4.822,10.738,10.77,10.738c1.675,0,3.255-0.393,4.669-1.073
	c-0.009-0.005-0.017-0.011-0.026-0.016c0.657-2.194,1.529-4.295,2.602-6.27c0.996,0.26,1.945,0.359,2.853,0.324
	c0.427-1.156,0.672-2.4,0.672-3.704C35.534,18.762,30.712,13.954,24.765,13.954z"/>
<path fill="#C0C0C0" d="M29.434,34.357c-1.414,0.681-2.994,1.073-4.669,1.073c-5.948,0-10.77-4.808-10.77-10.738
	s4.821-10.738,10.77-10.738c5.947,0,10.77,4.808,10.77,10.738c0,1.304-0.245,2.548-0.672,3.704c2.823-0.108,5.235-1.533,7.343-3.636
	c2.786-2.779,3.639-6.084,2.568-10.167c0.973-0.525,1.976-1,3.005-1.427c-0.097-0.19-0.188-0.382-0.29-0.569
	c-3.21,0.838-5.809-0.417-7.992-2.594c-2.185-2.178-2.854-4.77-2.014-7.97C35.931,1.195,34.28,0.514,32.555,0
	c-1.676,2.855-4.702,4.75-7.79,4.75c-3.088,0-6.115-1.895-7.791-4.75c-1.724,0.514-3.375,1.195-4.929,2.033
	c0.839,3.2,0.171,5.792-2.013,7.971c-2.184,2.177-4.783,3.432-7.993,2.595C1.199,14.147,0.515,15.793,0,17.513
	c2.862,1.67,4.764,4.101,4.764,7.18c0,3.078-1.901,6.098-4.764,7.768c0.515,1.719,1.199,3.365,2.04,4.916
	c3.209-0.838,5.809-0.172,7.993,2.006c2.183,2.179,2.852,4.77,2.013,7.97c1.554,0.837,3.205,1.521,4.929,2.033
	c1.676-2.854,4.702-4.751,7.791-4.751c3.088,0,6.114,1.896,7.79,4.751c0.464-0.139,0.922-0.291,1.375-0.453
	c0.989-1.672,1.555-3.542,1.555-5.432C35.485,39.582,33.071,36.487,29.434,34.357z"/>
<path fill="#C0C0C0" d="M117.236,24.692c0-3.079,1.9-5.51,4.764-7.18c-0.516-1.719-1.199-3.365-2.039-4.915
	c-3.21,0.838-5.809-0.417-7.992-2.594c-2.185-2.178-2.854-4.77-2.014-7.97c-1.553-0.839-3.203-1.521-4.929-2.034
	c-1.676,2.855-4.702,4.75-7.79,4.75S91.121,2.855,89.445,0c-1.724,0.514-3.375,1.195-4.929,2.033c0.839,3.2,0.171,5.792-2.013,7.971
	c-2.184,2.177-4.783,3.432-7.992,2.595c-0.102,0.187-0.193,0.379-0.29,0.568c1.029,0.427,2.033,0.902,3.007,1.427
	c-1.072,4.083-0.221,7.389,2.564,10.167c2.109,2.103,4.522,3.528,7.345,3.634c-0.427-1.156-0.671-2.399-0.671-3.703
	c0-5.931,4.82-10.738,10.77-10.738c5.947,0,10.77,4.808,10.77,10.738s-4.822,10.738-10.77,10.738c-1.676,0-3.256-0.393-4.67-1.073
	c-3.638,2.129-6.051,5.225-6.051,9.143c0,2.091,0.692,3.944,1.886,5.545c0.346,0.118,0.692,0.235,1.044,0.34
	c1.677-2.854,4.703-4.751,7.791-4.751s6.114,1.896,7.79,4.751c1.726-0.515,3.376-1.196,4.931-2.034
	c-0.84-3.199-0.173-5.791,2.012-7.97c2.184-2.177,4.782-3.432,7.992-2.594c0.84-1.55,1.523-3.196,2.039-4.916
	C119.137,30.202,117.236,27.771,117.236,24.692z"/>
<path fill="#FF6633" d="M82.504,39.382c-2.184-2.178-4.783-2.844-7.992-2.006c-0.842-1.551-1.525-3.197-2.04-4.916
	c2.862-1.67,4.764-4.689,4.764-7.768c0-3.079-1.901-5.51-4.764-7.18c0.452-1.513,1.043-2.963,1.75-4.346
	c-1.067-0.443-2.163-0.833-3.284-1.167c-2.137,3.642-5.998,6.059-9.937,6.059c-3.939,0-7.801-2.417-9.938-6.059
	c-1.12,0.333-2.215,0.724-3.283,1.167c0.706,1.383,1.296,2.834,1.75,4.346c-2.863,1.67-4.764,4.101-4.764,7.18
	c0,3.078,1.9,5.51,4.764,7.179c-0.516,1.72-1.199,3.366-2.039,4.916c-3.21-0.838-5.809,0.417-7.992,2.594
	c-2.185,2.179-2.852,4.771-2.012,7.97c-1.137,0.612-2.325,1.14-3.556,1.581c-1.067,1.802-2.627,3.373-4.522,4.479
	c0.657,2.192,1.529,4.291,2.602,6.27c4.094-1.068,7.41-0.217,10.196,2.56c2.786,2.78,3.639,6.085,2.568,10.168
	c1.982,1.067,4.088,1.938,6.288,2.593c2.139-3.641,5.999-6.061,9.938-6.061c3.939,0,7.8,2.42,9.937,6.061
	c2.201-0.654,4.307-1.525,6.291-2.595c-1.072-4.081-0.221-7.388,2.564-10.166c2.787-2.778,6.104-4.378,10.197-3.309
	c1.072-1.979,1.943-4.078,2.602-6.273c-1.708-0.996-3.143-2.206-4.19-3.612c-1.348-0.463-2.648-1.027-3.885-1.693
	C85.355,44.151,84.688,41.561,82.504,39.382z M61,57.2c-7.588,0-13.74-6.133-13.74-13.7S53.413,29.8,61,29.8
	c7.587,0,13.738,6.133,13.738,13.7S68.588,57.2,61,57.2z"/>
<path fill="#FF6633" d="M92.566,34.357c0.009-0.005,0.017-0.011,0.025-0.016c-0.658-2.194-1.529-4.293-2.602-6.272
	c-0.996,0.26-1.945,0.36-2.853,0.326C88.105,31.017,90.064,33.153,92.566,34.357z"/>
<path fill="#FF6633" d="M32.01,28.072c-1.073,1.975-1.945,4.075-2.602,6.27c0.009,0.005,0.017,0.011,0.026,0.016
	c2.502-1.204,4.461-3.34,5.429-5.961C33.955,28.431,33.006,28.332,32.01,28.072z"/>
<path fill="#B8581D" d="M39.497,39.381c2.184-2.177,4.782-3.432,7.992-2.594c0.84-1.55,1.523-3.196,2.039-4.916
	c-2.863-1.669-4.764-4.101-4.764-7.179c0-3.079,1.9-5.51,4.764-7.18c-0.454-1.512-1.044-2.963-1.75-4.346
	c-1.029,0.427-2.032,0.902-3.005,1.427c1.07,4.083,0.218,7.388-2.568,10.167c-2.108,2.103-4.521,3.528-7.343,3.636
	c-0.968,2.621-2.926,4.757-5.429,5.961c3.637,2.129,6.051,5.225,6.051,9.143c0,1.89-0.566,3.76-1.555,5.432
	c1.23-0.441,2.419-0.969,3.556-1.581C36.646,44.151,37.312,41.56,39.497,39.381z"/>
<path fill="#B8581D" d="M92.566,34.357c-2.502-1.205-4.461-3.341-5.429-5.962c-2.822-0.106-5.235-1.532-7.345-3.634
	c-2.785-2.778-3.637-6.084-2.564-10.167c-0.974-0.525-1.978-1-3.007-1.427c-0.707,1.382-1.298,2.833-1.75,4.346
	c2.862,1.67,4.764,4.101,4.764,7.18c0,3.078-1.901,6.098-4.764,7.768c0.515,1.719,1.198,3.365,2.04,4.916
	c3.209-0.838,5.809-0.172,7.992,2.006c2.184,2.179,2.852,4.77,2.013,7.97c1.236,0.666,2.537,1.23,3.885,1.693
	c-1.193-1.601-1.886-3.454-1.886-5.545C86.516,39.582,88.929,36.487,92.566,34.357z"/>
</svg>
