<?xml version="1.0" encoding="utf-8"?>
<!-- Generator: Adobe Illustrator 18.1.1, SVG Export Plug-In . SVG Version: 6.00 Build 0)  -->
<svg version="1.1" id="Layer_1" xmlns="http://www.w3.org/2000/svg" xmlns:xlink="http://www.w3.org/1999/xlink" x="0px" y="0px"
	 viewBox="0 0 250 60" enable-background="new 0 0 250 60" xml:space="preserve">
<g>
	<path fill="#676767" d="M9.1,43.7c2.3,0,3.9,0.7,5.4,2.1c0.2,0.2,0.2,0.5,0,0.6l-1.4,1.4c-0.2,0.2-0.4,0.2-0.6,0
		c-0.9-0.8-2.2-1.3-3.5-1.3c-2.9,0-5,2.4-5,5.3c0,2.8,2.2,5.2,5,5.2c1.4,0,2.5-0.5,3.4-1.3c0.2-0.2,0.4-0.1,0.6,0l1.4,1.4
		c0.2,0.2,0.1,0.5,0,0.6C13,59.3,11.1,60,9.1,60C4.6,60,1,56.4,1,51.9C1,47.4,4.6,43.7,9.1,43.7z"/>
	<path fill="#676767" d="M22.9,52.2l-5.1-7.6c-0.2-0.3,0-0.7,0.4-0.7h2.3c0.2,0,0.3,0.1,0.4,0.2l3.6,5.2l3.6-5.2
		c0.1-0.1,0.2-0.2,0.4-0.2h2.3c0.4,0,0.5,0.4,0.4,0.7l-5.2,7.5v7.2c0,0.2-0.2,0.4-0.4,0.4h-2.1c-0.2,0-0.4-0.2-0.4-0.4V52.2z"/>
	<path fill="#676767" d="M42.4,43.7c2.3,0,3.9,0.7,5.4,2.1c0.2,0.2,0.2,0.5,0,0.6l-1.4,1.4c-0.2,0.2-0.4,0.2-0.6,0
		c-0.9-0.8-2.2-1.3-3.5-1.3c-2.9,0-5,2.4-5,5.3c0,2.8,2.2,5.2,5,5.2c1.4,0,2.5-0.5,3.4-1.3c0.2-0.2,0.4-0.1,0.6,0l1.4,1.4
		c0.2,0.2,0.1,0.5,0,0.6c-1.5,1.5-3.5,2.2-5.5,2.2c-4.5,0-8.1-3.6-8.1-8.1C34.3,47.4,37.9,43.7,42.4,43.7z"/>
	<path fill="#676767" d="M52.9,44.4c0-0.2,0.2-0.4,0.4-0.4h2.1c0.2,0,0.4,0.2,0.4,0.4v12.7h5.7c0.2,0,0.4,0.2,0.4,0.4v1.9
		c0,0.2-0.2,0.4-0.4,0.4h-8.2c-0.2,0-0.4-0.2-0.4-0.4V44.4z"/>
	<path fill="#676767" d="M66.6,44.4c0-0.2,0.2-0.4,0.4-0.4h2.1c0.2,0,0.4,0.2,0.4,0.4v15c0,0.2-0.2,0.4-0.4,0.4H67
		c-0.2,0-0.4-0.2-0.4-0.4V44.4z"/>
	<path fill="#676767" d="M75.6,44.1c0-0.2,0.2-0.4,0.4-0.4h0.3c0.2,0,0.3,0,0.4,0.2l9.2,9.8h0v-9.3c0-0.2,0.2-0.4,0.4-0.4h2.1
		c0.2,0,0.4,0.2,0.4,0.4v15.2c0,0.2-0.2,0.4-0.4,0.4h-0.3c-0.2,0-0.3,0-0.4-0.2l-9.2-10.2h0v9.7c0,0.2-0.2,0.4-0.4,0.4h-2
		c-0.2,0-0.4-0.2-0.4-0.4V44.1z"/>
	<path fill="#676767" d="M102.1,43.7c2,0,4,0.8,5.5,2.1c0.2,0.2,0.2,0.5,0,0.6l-1.4,1.5c-0.2,0.2-0.4,0.2-0.6,0
		c-1-0.9-2.2-1.3-3.4-1.3c-2.8,0-5,2.4-5,5.2c0,2.8,2.2,5.2,5.1,5.2c1.3,0,2.2-0.4,2.7-0.6v-1.9h-1.8c-0.2,0-0.4-0.2-0.4-0.4v-1.8
		c0-0.2,0.2-0.4,0.4-0.4h4.3c0.2,0,0.4,0.2,0.4,0.4v5.8c0,0.2-0.1,0.3-0.2,0.4c0,0-2.3,1.5-5.6,1.5c-4.5,0-8.1-3.6-8.1-8.1
		C94,47.4,97.6,43.7,102.1,43.7z"/>
	<path fill="#676767" d="M121,44.4c0-0.2,0.2-0.4,0.4-0.4h2.1c0.2,0,0.4,0.2,0.4,0.4v15c0,0.2-0.2,0.4-0.4,0.4h-2.1
		c-0.2,0-0.4-0.2-0.4-0.4V44.4z"/>
	<path fill="#676767" d="M130,44.1c0-0.2,0.2-0.4,0.4-0.4h0.3c0.2,0,0.3,0,0.4,0.2l9.2,9.8h0v-9.3c0-0.2,0.2-0.4,0.4-0.4h2.1
		c0.2,0,0.4,0.2,0.4,0.4v15.2c0,0.2-0.2,0.4-0.4,0.4h-0.3c-0.2,0-0.3,0-0.4-0.2L133,49.6h0v9.7c0,0.2-0.2,0.4-0.4,0.4h-2
		c-0.2,0-0.4-0.2-0.4-0.4V44.1z"/>
	<path fill="#676767" d="M149.4,44.4c0-0.2,0.2-0.4,0.4-0.4h2.1c0.2,0,0.4,0.2,0.4,0.4v15c0,0.2-0.2,0.4-0.4,0.4h-2.1
		c-0.2,0-0.4-0.2-0.4-0.4V44.4z"/>
	<path fill="#676767" d="M161,46.7h-3.4c-0.2,0-0.4-0.2-0.4-0.4v-1.9c0-0.2,0.2-0.4,0.4-0.4h9.8c0.2,0,0.4,0.2,0.4,0.4v1.9
		c0,0.2-0.2,0.4-0.4,0.4h-3.4v12.7c0,0.2-0.2,0.4-0.4,0.4h-2.1c-0.2,0-0.4-0.2-0.4-0.4V46.7z"/>
	<path fill="#676767" d="M172.5,44.4c0-0.2,0.2-0.4,0.4-0.4h2.1c0.2,0,0.4,0.2,0.4,0.4v15c0,0.2-0.2,0.4-0.4,0.4H173
		c-0.2,0-0.4-0.2-0.4-0.4V44.4z"/>
	<path fill="#676767" d="M179.7,59.2l7-15.2c0.1-0.1,0.2-0.2,0.4-0.2h0.2c0.2,0,0.3,0.1,0.4,0.2l6.9,15.2c0.1,0.3,0,0.6-0.4,0.6h-2
		c-0.3,0-0.5-0.1-0.7-0.5l-1.1-2.4h-6.7l-1.1,2.4c-0.1,0.2-0.3,0.5-0.7,0.5h-2C179.7,59.8,179.6,59.5,179.7,59.2z M189.4,54.4
		l-2.3-5h-0.1l-2.2,5H189.4z"/>
	<path fill="#676767" d="M201.4,46.7h-3.4c-0.2,0-0.4-0.2-0.4-0.4v-1.9c0-0.2,0.2-0.4,0.4-0.4h9.8c0.2,0,0.4,0.2,0.4,0.4v1.9
		c0,0.2-0.2,0.4-0.4,0.4h-3.4v12.7c0,0.2-0.2,0.4-0.4,0.4h-2.1c-0.2,0-0.4-0.2-0.4-0.4V46.7z"/>
	<path fill="#676767" d="M212.9,44.4c0-0.2,0.2-0.4,0.4-0.4h2.1c0.2,0,0.4,0.2,0.4,0.4v15c0,0.2-0.2,0.4-0.4,0.4h-2.1
		c-0.2,0-0.4-0.2-0.4-0.4V44.4z"/>
	<path fill="#676767" d="M220.1,44.5c-0.1-0.3,0-0.6,0.4-0.6h2.3c0.2,0,0.3,0.1,0.4,0.2l4.3,9.7h0.1l4.3-9.7c0-0.1,0.2-0.2,0.4-0.2
		h2.3c0.3,0,0.5,0.3,0.4,0.6l-7,15.2c-0.1,0.1-0.2,0.2-0.4,0.2h-0.2c-0.2,0-0.3-0.1-0.4-0.2L220.1,44.5z"/>
	<path fill="#676767" d="M239.2,44.4c0-0.2,0.2-0.4,0.4-0.4h9.2c0.2,0,0.4,0.2,0.4,0.4v1.9c0,0.2-0.2,0.4-0.4,0.4h-6.7v3.7h5.6
		c0.2,0,0.4,0.2,0.4,0.4v1.9c0,0.2-0.2,0.4-0.4,0.4h-5.6v4h6.7c0.2,0,0.4,0.2,0.4,0.4v1.9c0,0.2-0.2,0.4-0.4,0.4h-9.2
		c-0.2,0-0.4-0.2-0.4-0.4V44.4z"/>
</g>
<g>
	<path fill="#F47527" d="M16.6,0c4.2,0,8.2,1.6,11.3,4.3c0.4,0.4,0.4,0.9,0,1.3l-2.9,3c-0.4,0.4-0.8,0.4-1.2,0c-2-1.8-4.4-2.7-7-2.7
		c-5.8,0-10.4,5-10.4,10.8c0,5.8,4.6,10.7,10.4,10.7c2.6,0,4.6-0.8,5.5-1.2v-4h-3.7c-0.5,0-0.9-0.4-0.9-0.8v-3.7
		c0-0.5,0.4-0.9,0.9-0.9h8.9c0.5,0,0.8,0.4,0.8,0.9v11.9c0,0.4-0.2,0.6-0.4,0.7c0,0-4.8,3-11.5,3C7.4,33.5,0,26.1,0,16.8
		C0,7.5,7.4,0,16.6,0z"/>
	<path fill="#F47527" d="M39.8,1.4c0-0.5,0.4-0.9,0.9-0.9H45c0.5,0,0.9,0.4,0.9,0.9v12.3H61V1.4c0-0.5,0.4-0.9,0.9-0.9h4.3
		c0.5,0,0.9,0.4,0.9,0.9v30.8c0,0.5-0.4,0.9-0.9,0.9h-4.3c-0.5,0-0.9-0.4-0.9-0.9V19.3H45.9v12.9c0,0.5-0.4,0.9-0.9,0.9h-4.3
		c-0.5,0-0.9-0.4-0.9-0.9V1.4z"/>
	<path fill="#F47527" d="M79.5,1.4c0-0.5,0.4-0.9,0.9-0.9h4.3c0.5,0,0.9,0.4,0.9,0.9v30.8c0,0.5-0.4,0.9-0.9,0.9h-4.3
		c-0.5,0-0.9-0.4-0.9-0.9V1.4z"/>
	<path fill="#F47527" d="M96.8,29.9c-0.5-0.4-0.6-0.7-0.2-1.4l1.7-2.9c0.4-0.7,1.2-0.7,1.6-0.3c1.9,1.4,4,2.9,7,2.9
		c2.4,0,4.2-1.6,4.2-3.6c0-2.4-2-4-5.9-5.6c-4.4-1.8-8.7-4.6-8.7-10.1c0-4.1,3.1-8.9,10.4-8.9c4.7,0,8.3,2.4,9.3,3.1
		c0.5,0.3,0.6,1.1,0.3,1.5l-1.8,2.7c-0.4,0.6-1.1,0.9-1.6,0.6c-2-1.3-3.9-2.6-6.4-2.6c-2.6,0-4.1,1.5-4.1,3.3c0,2.2,1.7,3.7,5.5,5.2
		c4.5,1.8,9.7,4.5,9.7,10.5c0,4.8-4.1,9.2-10.7,9.2C101.1,33.5,98.1,31.1,96.8,29.9z"/>
	<path fill="#F47527" d="M123.9,31.9l14.4-31.3c0.1-0.3,0.4-0.5,0.8-0.5h0.5c0.5,0,0.6,0.2,0.8,0.5l14.3,31.3
		c0.3,0.6-0.1,1.2-0.8,1.2h-4c-0.7,0-1-0.3-1.3-0.9l-2.3-5h-13.9l-2.3,5c-0.2,0.5-0.6,0.9-1.3,0.9h-4
		C124,33.1,123.6,32.5,123.9,31.9z M143.9,21.9l-4.6-10.2h-0.1l-4.5,10.2H143.9z"/>
	<path fill="#F47527" d="M163.3,1.4c0-0.5,0.4-0.9,0.9-0.9h4.3c0.5,0,0.9,0.4,0.9,0.9v26.1h11.8c0.5,0,0.9,0.4,0.9,0.9v3.8
		c0,0.5-0.4,0.9-0.9,0.9h-17c-0.5,0-0.9-0.4-0.9-0.9V1.4z"/>
	<path fill="#F47527" d="M191.4,1.4c0-0.5,0.4-0.9,0.9-0.9h4.3c0.5,0,0.9,0.4,0.9,0.9v26.1h11.8c0.5,0,0.9,0.4,0.9,0.9v3.8
		c0,0.5-0.4,0.9-0.9,0.9h-17c-0.5,0-0.9-0.4-0.9-0.9V1.4z"/>
	<path fill="#F47527" d="M233.3,0c9.3,0,16.7,7.5,16.7,16.8c0,9.3-7.4,16.7-16.7,16.7c-9.3,0-16.6-7.4-16.6-16.7
		C216.7,7.5,224.1,0,233.3,0z M233.3,27.5c5.8,0,10.7-4.8,10.7-10.7s-4.8-10.8-10.7-10.8s-10.6,4.9-10.6,10.8S227.5,27.5,233.3,27.5
		z"/>
</g>
</svg>
