<?xml version="1.0" encoding="utf-8"?>
<!-- Generator: Adobe Illustrator 16.0.0, SVG Export Plug-In . SVG Version: 6.00 Build 0)  -->
<!DOCTYPE svg PUBLIC "-//W3C//DTD SVG 1.1//EN" "http://www.w3.org/Graphics/SVG/1.1/DTD/svg11.dtd">
<svg version="1.1" id="Layer_1" xmlns="http://www.w3.org/2000/svg" xmlns:xlink="http://www.w3.org/1999/xlink" x="0px" y="0px"
	 width="350px" height="32.976px" viewBox="0 0 350 32.976" enable-background="new 0 0 350 32.976" xml:space="preserve">
<g>
	<g>
		<path fill="#F47527" d="M64.137,15.3c1.324-0.09,4.566-0.137,5.846-0.137c0.274,0.96,0.365,3.199,0.365,4.66v10.824
			c-0.548,0.409-1.507,1.052-2.329,1.415c-1.325,0.503-3.197,0.913-5.435,0.913c-0.502,0-1.005,0-1.507-0.045
			c-6.486-0.456-10.916-4.064-10.916-15.301c0-6.577,1.918-10.687,4.11-13.016c2.055-2.194,5.07-3.198,8.861-3.198
			c3.791,0,5.846,1.462,6.257,2.285c0,1.003-0.273,1.597-0.64,2.099h-0.183c-0.319,0.046-0.731-0.228-1.279-0.411
			c-1.141-0.411-2.512-0.64-3.882-0.64c-5.572,0-8.906,3.883-8.906,12.607c0,9.772,3.974,12.331,8.358,12.331
			c1.644,0,3.06-0.456,3.562-0.913V18.543c-1.142,0-2.557-0.045-2.74-2.877C63.679,15.666,63.679,15.3,64.137,15.3z"/>
		<path fill="#F47527" d="M76.88,22.929V5.481c0-1.918-0.046-3.242-0.091-4.294C77.337,0.184,78.524,0,80.443,0
			c0.275,0.502,0.365,1.096,0.365,3.015v9.683c0.914-0.867,1.964-1.508,2.877-1.874c0.822-0.319,1.827-0.546,2.969-0.546
			c4.43,0,5.709,2.51,5.709,8.586v6.714c0,2.511,0,4.611,0.045,6.303c-0.457,0.456-1.004,0.547-3.745,0.547
			c-0.229-0.547-0.319-1.233-0.319-2.101V19.274c0-0.869,0-1.506-0.092-1.964c-0.137-2.876-1.279-3.653-2.968-3.653
			c-1.827,0-3.426,1.004-4.477,2.055v13.885c0,0.958-0.09,1.735-0.457,2.374c-0.594,0.456-1.142,0.456-3.562,0.456
			C76.834,29.78,76.88,26.674,76.88,22.929z"/>
		<path fill="#F47527" d="M101.455,0.412c1.826,0,2.147,0.823,2.101,2.466c-0.046,1.598-0.502,2.741-2.375,2.741
			c-1.599,0-2.146-0.823-2.146-2.649C99.033,1.28,99.81,0.412,101.455,0.412z M103.28,13.977v15.528
			c0,1.051-0.137,1.782-0.547,2.422c-0.319,0.456-0.959,0.456-3.517,0.501c0-2.329,0.045-5.022,0.045-7.811v-8.083
			c0-2.101-0.045-3.518-0.091-4.704c0.458-0.959,1.874-1.098,3.746-1.098C103.235,11.372,103.28,12.058,103.28,13.977z"/>
		<path fill="#F47527" d="M117.623,10.368c2.74,0.183,3.882,1.28,4.065,1.827c0,0.593-0.32,1.552-0.685,2.055
			c-0.641-0.137-1.324-0.182-2.101-0.456c-0.686-0.276-1.416-0.413-2.239-0.413c-1.872,0-3.105,0.959-3.105,2.376
			c0,0.776,0.365,1.46,1.46,2.329c1.144,0.913,3.244,2.283,4.615,3.424c1.963,1.555,2.693,3.062,2.693,4.98
			c0,4.247-3.424,6.394-7.627,6.394c-2.831,0-5.253-0.822-5.709-1.964c0-0.731,0.274-1.689,0.731-2.282c0.045,0,0.091,0,0.183,0
			c0.364,0,0.776,0.136,1.232,0.362c0.959,0.414,2.192,0.732,3.472,0.732c0.273,0,0.594-0.046,0.867-0.092
			c1.645-0.181,2.65-1.233,2.65-2.739c0-1.051-0.548-1.964-1.963-2.97c-1.188-0.867-2.65-1.917-3.7-2.785l-1.096-0.959
			c-1.371-1.324-2.009-2.742-2.009-4.294c0-3.517,2.832-5.616,6.941-5.616C116.8,10.278,117.258,10.323,117.623,10.368z"/>
		<path fill="#F47527" d="M127.9,12.971c0-0.183,0.046-0.365,0.092-0.501c0.959-0.914,3.7-2.102,6.759-2.192
			c0.73,0,0.823,0,1.599,0.045c3.379,0.228,4.476,2.465,4.476,6.349v2.056c0,3.15-0.092,6.805-0.092,9.224
			c0,0-0.182,2.376,1.28,2.103c-0.046,0.639-0.046,1.415-0.046,1.691c-0.366,0.499-1.234,1.002-2.421,1.048
			c-1.095,0-2.283-1.004-2.74-1.643c-0.274,0.273-0.822,0.776-1.325,1.049c-1.005,0.503-2.1,0.594-3.334,0.594
			c-2.923,0-5.708-1.827-5.708-6.028c0-5.617,4.978-7.033,7.718-7.308c0.457-0.046,0.869-0.046,1.278-0.046
			c0.594,0,1.097,0.046,1.509,0.138v-2.604c0-2.055-0.229-3.198-2.193-3.198c-1.599,0-3.471,0.641-4.794,1.188
			c-0.504,0.228-0.96,0.365-1.326,0.365c-0.411-0.455-0.594-1.278-0.684-1.826C127.9,13.337,127.9,13.155,127.9,12.971z
			 M136.944,25.395v-3.243c-0.275-0.046-0.594-0.046-0.915-0.046c-0.548,0-1.049,0.046-1.507,0.092
			c-2.193,0.366-4.064,1.326-4.064,4.201c0,2.33,1.004,3.153,2.421,3.243h0.319c1.37,0,2.877-0.641,3.517-1.415
			c0.046-0.092,0.091-0.365,0.137-0.64C136.944,27.038,136.944,26.354,136.944,25.395z"/>
		<path fill="#F47527" d="M153.023,30.099c-0.047,0.64-0.047,1.463-0.047,1.69c-0.365,0.548-1.236,1.004-2.422,1.05
			c-0.546,0-1.141-0.273-1.643-0.595c-0.73-0.499-1.098-1.369-1.098-2.282c0-0.137,0-0.32,0-0.457V6.349
			c0-2.239-0.043-3.79-0.09-5.162C148.18,0.137,149.55,0,151.424,0c0.272,0.914,0.316,1.964,0.316,4.249v23.75
			C151.74,27.999,151.606,30.373,153.023,30.099z"/>
		<path fill="#F47527" d="M164.029,30.099c-0.045,0.64-0.045,1.463-0.045,1.69c-0.366,0.548-1.234,1.004-2.422,1.05
			c-0.548,0-1.142-0.273-1.644-0.595c-0.73-0.499-1.097-1.369-1.097-2.282c0-0.137,0-0.32,0-0.457V6.349
			c0-2.239-0.044-3.79-0.091-5.162c0.457-1.05,1.826-1.187,3.7-1.187c0.272,0.914,0.318,1.964,0.318,4.249v23.75
			C162.75,27.999,162.613,30.373,164.029,30.099z"/>
		<path fill="#F47527" d="M177.319,32.931c-5.662,0-8.812-3.333-8.812-11.235c0-7.855,3.698-11.417,8.951-11.417
			c5.754,0,8.677,3.79,8.677,11.143C186.134,29.049,182.388,32.931,177.319,32.931z M177.411,29.962
			c2.423,0,4.523-2.101,4.523-8.404c0-5.982-1.782-8.221-4.523-8.221h-0.092c-2.421,0-4.567,2.239-4.567,8.174
			C172.751,27.815,174.716,29.962,177.411,29.962z"/>
	</g>
	<g>
		<path fill="#F47527" d="M7.921,14.385v13.854c0,0.877,0.004,1.626,0.015,2.248c0.01,0.621,0.025,1.176,0.046,1.666
			c-0.183,0.163-0.438,0.266-0.765,0.306C6.891,32.499,6.32,32.52,5.504,32.52c-0.183-0.326-0.275-0.766-0.275-1.315V14.385H1.315
			c-0.469,0-0.897-0.031-1.284-0.092C0.01,14.211,0,14.099,0,13.957c0-0.224,0.025-0.458,0.077-0.704
			c0.05-0.245,0.106-0.449,0.168-0.612c0.041-0.122,0.097-0.223,0.168-0.305c0.071-0.081,0.138-0.153,0.199-0.214
			c0.102,0,0.208,0.005,0.321,0.015c0.112,0.01,0.25,0.015,0.413,0.015c0.347,0.021,0.734,0.031,1.163,0.031s0.938,0,1.529,0h9.358
			c0,0.286-0.02,0.562-0.061,0.826c-0.041,0.266-0.092,0.52-0.152,0.765c-0.062,0.224-0.168,0.377-0.321,0.458
			c-0.153,0.082-0.26,0.132-0.321,0.153H7.921z"/>
		<path fill="#F47527" d="M26.575,32.52c-0.164-0.447-0.245-0.968-0.245-1.56v-8.227c-0.347,0.021-0.77,0.035-1.269,0.046
			c-0.5,0.011-1.178,0.016-2.034,0.016h-3.976v7.768c0,0.367-0.025,0.679-0.076,0.933c-0.051,0.255-0.158,0.495-0.321,0.719
			c-0.123,0.163-0.342,0.254-0.658,0.274c-0.316,0.021-0.882,0.031-1.697,0.031c0.02-0.734,0.035-1.544,0.045-2.432
			c0.01-0.886,0.015-1.88,0.015-2.981V17.045c0-0.958-0.005-1.809-0.015-2.554c-0.01-0.744-0.026-1.411-0.045-2.002
			c0.163-0.164,0.422-0.265,0.779-0.306c0.356-0.041,0.912-0.061,1.667-0.061c0.122,0.184,0.203,0.413,0.245,0.688
			c0.04,0.275,0.061,0.678,0.061,1.208v6.576h7.279v-6.392c0-0.713,0.102-1.305,0.306-1.773c0.163-0.143,0.407-0.229,0.734-0.26
			c0.326-0.031,0.896-0.046,1.712-0.046c-0.021,0.733-0.036,1.544-0.046,2.431c-0.01,0.887-0.016,1.871-0.016,2.952v10.153
			c0,0.978,0.005,1.824,0.016,2.538c0.01,0.714,0.025,1.366,0.046,1.957c-0.143,0.163-0.408,0.266-0.795,0.306
			C27.9,32.499,27.329,32.52,26.575,32.52z"/>
		<path fill="#F47527" d="M37.447,30.332c0.459,0.012,0.933,0.017,1.422,0.017c0.632,0,1.305,0,2.019,0
			c0.713,0,1.376-0.021,1.988-0.062l0.031,0.03c-0.082,0.776-0.194,1.306-0.337,1.591s-0.367,0.469-0.673,0.55
			c-0.408,0.021-0.897,0.036-1.468,0.046c-0.571,0.01-1.284,0.016-2.141,0.016c-0.958,0-1.82-0.016-2.584-0.046
			c-0.765-0.031-1.392-0.066-1.881-0.107c-0.041-0.225-0.076-0.433-0.106-0.627c-0.031-0.193-0.067-0.402-0.107-0.626v-14.65
			c0-0.672,0-1.324,0-1.957c0-0.632-0.02-1.253-0.061-1.866c0.163-0.04,0.377-0.122,0.642-0.244
			c0.265-0.123,0.571-0.194,0.917-0.214h7.401c-0.041,0.734-0.107,1.233-0.199,1.499c-0.091,0.265-0.25,0.449-0.474,0.55
			c-0.367,0.061-0.78,0.097-1.238,0.107c-0.458,0.011-0.984,0.016-1.575,0.016H36.3v6.239h5.688
			c-0.061,0.488-0.122,0.877-0.183,1.162c-0.061,0.286-0.138,0.505-0.229,0.657c-0.092,0.152-0.199,0.256-0.321,0.306
			c-0.122,0.051-0.275,0.077-0.458,0.077H36.3v7.462C36.606,30.298,36.988,30.322,37.447,30.332z"/>
		<path fill="#F47527" d="M196.849,32.52c-0.55,0-0.979-0.081-1.285-0.244v-16.27c0-0.673-0.005-1.28-0.015-1.82
			s-0.026-1.056-0.046-1.545c0.143-0.04,0.356-0.122,0.642-0.244c0.285-0.123,0.621-0.194,1.01-0.214h7.615
			c-0.062,0.754-0.138,1.253-0.23,1.499c-0.091,0.244-0.249,0.408-0.474,0.49c-0.224,0.061-0.479,0.097-0.764,0.106
			c-0.286,0.01-0.663,0.015-1.133,0.015h-3.913v6.637h5.84c-0.041,0.468-0.086,0.846-0.138,1.131
			c-0.051,0.286-0.127,0.504-0.229,0.657c-0.103,0.153-0.225,0.255-0.367,0.306s-0.306,0.077-0.489,0.077h-4.617
			c0,1.672,0.004,3.247,0.014,4.725c0.012,1.479,0.025,2.921,0.046,4.327c-0.102,0.041-0.284,0.112-0.55,0.214
			C197.501,32.468,197.196,32.52,196.849,32.52z"/>
		<path fill="#F47527" d="M214.984,11.725c1.304,0,2.441,0.234,3.409,0.703c0.969,0.469,1.77,1.146,2.4,2.033
			c0.633,0.887,1.103,1.979,1.407,3.273c0.307,1.294,0.458,2.758,0.458,4.389c0,3.405-0.646,6.05-1.94,7.936
			c-1.295,1.887-3.268,2.829-5.918,2.829c-1.387,0-2.563-0.245-3.532-0.734c-0.968-0.49-1.758-1.188-2.37-2.095
			c-0.611-0.907-1.061-2.008-1.346-3.303c-0.286-1.294-0.429-2.758-0.429-4.389c0-3.526,0.674-6.183,2.02-7.966
			C210.488,12.616,212.435,11.725,214.984,11.725z M210.091,22.519c0,2.732,0.453,4.767,1.36,6.103
			c0.907,1.335,2.074,2.002,3.502,2.002c1.487,0,2.66-0.677,3.517-2.034c0.856-1.354,1.284-3.48,1.284-6.375
			c0-1.448-0.122-2.691-0.367-3.73c-0.244-1.041-0.586-1.893-1.024-2.555c-0.438-0.662-0.953-1.151-1.544-1.468
			c-0.592-0.316-1.233-0.473-1.927-0.473h-0.03c-1.428,0-2.58,0.682-3.456,2.048C210.529,17.402,210.091,19.563,210.091,22.519z"/>
		<path fill="#F47527" d="M233.087,30.685c1,0,1.738-0.07,2.218-0.214c0.479-0.143,0.842-0.295,1.086-0.459
			c0.224-1.039,0.382-2.191,0.473-3.456c0.093-1.264,0.139-2.539,0.139-3.822l0.03-8.379c0-0.408,0.025-0.759,0.076-1.055
			c0.052-0.295,0.128-0.577,0.23-0.842c0.122-0.081,0.234-0.142,0.336-0.183c0.102-0.041,0.234-0.071,0.397-0.091
			c0.163-0.02,0.366-0.036,0.611-0.046c0.245-0.01,0.57-0.015,0.979-0.015c-0.021,0.795-0.035,1.666-0.046,2.615
			c-0.01,0.948-0.016,1.993-0.016,3.135v4.862c0,1.651-0.065,3.149-0.198,4.495c-0.133,1.347-0.342,2.6-0.627,3.762
			c-0.592,0.714-1.417,1.208-2.477,1.483c-1.061,0.275-2.192,0.413-3.395,0.413c-1.162,0-2.137-0.164-2.921-0.489
			c-0.785-0.325-1.422-0.781-1.911-1.362c-0.489-0.58-0.862-1.268-1.117-2.062c-0.255-0.796-0.433-1.662-0.534-2.601
			c-0.042-0.509-0.076-1.029-0.108-1.56c-0.029-0.53-0.046-1.09-0.046-1.682v-5.81c0-1-0.005-1.892-0.014-2.676
			c-0.012-0.785-0.026-1.493-0.046-2.126c0.122-0.163,0.377-0.269,0.764-0.32c0.388-0.051,0.969-0.077,1.743-0.077
			c0.143,0.244,0.229,0.536,0.26,0.871c0.031,0.337,0.046,0.811,0.046,1.422v8.472c0,0.652,0.016,1.253,0.046,1.804
			c0.031,0.551,0.087,1.081,0.169,1.59c0.224,1.346,0.622,2.417,1.192,3.212S231.885,30.685,233.087,30.685z"/>
		<path fill="#F47527" d="M252.324,22.151c0.53,1.001,1.034,2.009,1.515,3.028c0.479,1.02,0.892,1.927,1.238,2.723v-0.245
			c0-0.102,0-0.209,0-0.321s-0.012-0.22-0.031-0.321c-0.021-0.347-0.041-0.744-0.061-1.192c-0.021-0.448-0.036-0.918-0.046-1.407
			c-0.011-0.489-0.021-0.973-0.031-1.452c-0.01-0.479-0.015-0.934-0.015-1.36v-7.493c0-0.387,0.02-0.704,0.061-0.949
			c0.041-0.244,0.111-0.478,0.215-0.704c0.122-0.081,0.24-0.147,0.352-0.197c0.111-0.051,0.244-0.087,0.398-0.108
			c0.152-0.02,0.35-0.03,0.595-0.03c0.244,0,0.571,0,0.979,0c-0.021,0.917-0.035,1.895-0.046,2.936
			c-0.01,1.039-0.015,2.171-0.015,3.395v13.669c-0.04,0.043-0.198,0.135-0.474,0.276c-0.276,0.143-0.556,0.214-0.841,0.214
			c-0.144,0-0.347-0.011-0.612-0.031c-0.265-0.021-0.479-0.061-0.643-0.122c-0.652-1.182-1.351-2.416-2.095-3.7
			s-1.504-2.62-2.278-4.006l-1.253-2.294c-0.327-0.651-0.659-1.351-0.995-2.095s-0.667-1.463-0.993-2.155
			c-0.163-0.347-0.291-0.622-0.383-0.827c-0.092-0.204-0.208-0.458-0.351-0.764c0.061,1.162,0.105,2.339,0.138,3.531
			c0.029,1.193,0.055,2.229,0.075,3.104v7.218c0,0.408-0.021,0.729-0.062,0.963c-0.04,0.234-0.111,0.465-0.214,0.688
			c-0.081,0.103-0.173,0.181-0.275,0.23c-0.102,0.051-0.239,0.087-0.412,0.106c-0.173,0.021-0.393,0.036-0.657,0.046
			c-0.266,0.01-0.602,0.016-1.01,0.016c0.02-0.896,0.036-1.865,0.046-2.905c0.011-1.039,0.017-2.172,0.017-3.395V13.161
			c-0.062-0.081-0.139-0.178-0.23-0.29s-0.137-0.188-0.137-0.23v-0.092c0-0.08,0.009-0.142,0.029-0.183
			c0.082-0.041,0.209-0.076,0.384-0.106c0.172-0.032,0.366-0.057,0.581-0.077c0.212-0.02,0.422-0.036,0.626-0.046
			c0.204-0.01,0.366-0.015,0.489-0.015c0.306,0,0.612,0.092,0.917,0.275c0.347,0.653,0.76,1.401,1.239,2.248
			c0.479,0.846,1.003,1.758,1.575,2.737c0.285,0.47,0.56,0.944,0.825,1.422c0.265,0.479,0.54,0.974,0.825,1.482L252.324,22.151z"/>
		<path fill="#F47527" d="M262.477,12.366c0.183-0.02,0.438-0.046,0.764-0.076c0.326-0.03,0.688-0.062,1.086-0.091
			c0.397-0.031,0.811-0.057,1.238-0.077s0.836-0.031,1.224-0.031c1.692,0,3.089,0.234,4.19,0.704
			c1.101,0.469,1.977,1.126,2.63,1.972c0.651,0.846,1.105,1.846,1.36,2.998s0.382,2.411,0.382,3.776
			c0,2.102-0.209,3.884-0.627,5.353c-0.418,1.468-1.136,2.69-2.155,3.67c-0.449,0.408-0.918,0.745-1.406,1.009
			c-0.49,0.266-0.985,0.475-1.484,0.627c-0.5,0.153-0.988,0.255-1.468,0.306s-0.923,0.076-1.33,0.076
			c-0.897,0-1.718-0.025-2.462-0.076s-1.514-0.127-2.308-0.229v-17.83c0-0.612,0.02-1.055,0.06-1.331
			C262.211,12.84,262.313,12.591,262.477,12.366z M272.385,21.54c0-2.324-0.352-4.036-1.056-5.137
			c-0.702-1.102-1.748-1.763-3.135-1.988c-0.55-0.122-1.162-0.183-1.834-0.183c-0.612,0-1.132,0.031-1.56,0.092v15.934
			c0.306,0.041,0.642,0.075,1.009,0.106s0.755,0.046,1.162,0.046c0.652,0,1.3-0.116,1.942-0.352
			c0.642-0.234,1.223-0.673,1.742-1.314c0.521-0.644,0.938-1.545,1.255-2.706C272.228,24.874,272.385,23.376,272.385,21.54z"/>
		<path fill="#F47527" d="M290.244,32.029c-0.284-0.835-0.539-1.65-0.763-2.446c-0.226-0.794-0.51-1.712-0.857-2.752h-6.36
			c-0.348,1.021-0.679,1.983-0.995,2.89c-0.315,0.908-0.586,1.708-0.81,2.4c-0.041,0.144-0.123,0.251-0.244,0.321
			c-0.123,0.071-0.358,0.107-0.704,0.107c-0.225,0-0.515-0.02-0.871-0.062c-0.357-0.04-0.679-0.091-0.963-0.152
			c0.02-0.203,0.049-0.392,0.092-0.564c0.039-0.174,0.092-0.343,0.152-0.507c0.429-1.283,0.937-2.756,1.528-4.418
			c0.592-1.661,1.193-3.344,1.806-5.046c0.61-1.702,1.191-3.339,1.742-4.909c0.551-1.569,0.998-2.904,1.345-4.006
			c0.104-0.429,0.204-0.642,0.307-0.642c0.102-0.021,0.209-0.046,0.321-0.077c0.111-0.031,0.218-0.046,0.321-0.046
			c0.162-0.041,0.315-0.062,0.459-0.062c0.142,0,0.265,0,0.366,0c0.286,0.062,0.479,0.164,0.581,0.306
			c0.347,1.04,0.719,2.162,1.117,3.365c0.397,1.203,0.799,2.415,1.207,3.64c0.408,1.223,0.806,2.42,1.193,3.593
			c0.387,1.172,0.744,2.248,1.069,3.226c0.429,1.225,0.796,2.31,1.102,3.258s0.591,1.809,0.856,2.583v0.062
			c0,0.021,0.01,0.029,0.03,0.029c0,0.062-0.041,0.135-0.122,0.215c-0.183,0.062-0.449,0.112-0.795,0.152
			c-0.348,0.042-0.653,0.062-0.917,0.062c-0.185,0-0.367-0.03-0.551-0.092C290.704,32.397,290.489,32.256,290.244,32.029z
			 M282.935,24.66h5.046c-0.224-0.714-0.428-1.402-0.61-2.064c-0.185-0.663-0.379-1.3-0.582-1.911
			c-0.326-1.02-0.586-1.891-0.78-2.615c-0.194-0.723-0.361-1.351-0.504-1.881c-0.266,0.959-0.541,1.933-0.826,2.921
			c-0.285,0.989-0.642,2.126-1.07,3.409L282.935,24.66z"/>
		<path fill="#F47527" d="M302.569,14.385v13.854c0,0.877,0.005,1.626,0.015,2.248c0.011,0.621,0.025,1.176,0.046,1.666
			c-0.183,0.163-0.438,0.266-0.764,0.306c-0.327,0.041-0.897,0.062-1.712,0.062c-0.186-0.326-0.276-0.766-0.276-1.315V14.385h-3.914
			c-0.47,0-0.897-0.031-1.284-0.092c-0.021-0.081-0.031-0.194-0.031-0.336c0-0.224,0.025-0.458,0.077-0.704
			c0.05-0.245,0.106-0.449,0.167-0.612c0.041-0.122,0.098-0.223,0.168-0.305c0.071-0.081,0.139-0.153,0.199-0.214
			c0.103,0,0.209,0.005,0.321,0.015c0.113,0.01,0.25,0.015,0.413,0.015c0.347,0.021,0.733,0.031,1.162,0.031s0.938,0,1.529,0h9.358
			c0,0.286-0.021,0.562-0.062,0.826c-0.041,0.266-0.091,0.52-0.153,0.765c-0.061,0.224-0.169,0.377-0.321,0.458
			c-0.152,0.082-0.26,0.132-0.32,0.153H302.569z"/>
		<path fill="#F47527" d="M311.254,32.52c-0.185,0-0.276-0.193-0.276-0.581c0-1.162,0.006-2.594,0.016-4.297
			c0.01-1.701,0.016-3.491,0.016-5.367c0-1.162-0.006-2.309-0.016-3.439c-0.01-1.133-0.016-2.157-0.016-3.075
			c0-0.835-0.005-1.498-0.015-1.987c-0.011-0.489-0.025-0.805-0.046-0.948c0.122-0.307,0.383-0.5,0.78-0.581
			c0.396-0.081,0.973-0.123,1.727-0.123c0.123,0,0.199,0.158,0.23,0.473c0.03,0.318,0.046,0.831,0.046,1.545
			c0,1.223-0.006,2.538-0.016,3.945c-0.011,1.406-0.016,2.783-0.016,4.129c0,1.325,0.005,2.589,0.016,3.792
			c0.01,1.202,0.016,2.293,0.016,3.272c0,0.855,0.004,1.509,0.014,1.958c0.012,0.447,0.017,0.754,0.017,0.916
			c-0.122,0.163-0.378,0.266-0.765,0.306C312.579,32.499,312.007,32.52,311.254,32.52z"/>
		<path fill="#F47527" d="M325.291,11.725c1.305,0,2.442,0.234,3.41,0.703c0.969,0.469,1.769,1.146,2.4,2.033
			s1.101,1.979,1.407,3.273c0.306,1.294,0.458,2.758,0.458,4.389c0,3.405-0.647,6.05-1.941,7.936
			c-1.296,1.887-3.268,2.829-5.918,2.829c-1.387,0-2.564-0.245-3.532-0.734c-0.969-0.49-1.759-1.188-2.37-2.095
			s-1.06-2.008-1.345-3.303c-0.287-1.294-0.429-2.758-0.429-4.389c0-3.526,0.673-6.183,2.018-7.966
			C320.795,12.616,322.742,11.725,325.291,11.725z M320.398,22.519c0,2.732,0.452,4.767,1.36,6.103
			c0.907,1.335,2.074,2.002,3.502,2.002c1.487,0,2.66-0.677,3.517-2.034c0.855-1.354,1.285-3.48,1.285-6.375
			c0-1.448-0.123-2.691-0.367-3.73c-0.245-1.041-0.586-1.893-1.025-2.555c-0.438-0.662-0.953-1.151-1.543-1.468
			c-0.593-0.316-1.234-0.473-1.928-0.473h-0.029c-1.429,0-2.581,0.682-3.457,2.048C320.835,17.402,320.398,19.563,320.398,22.519z"
			/>
		<path fill="#F47527" d="M344.832,22.151c0.53,1.001,1.034,2.009,1.515,3.028c0.479,1.02,0.892,1.927,1.238,2.723v-0.245
			c0-0.102,0-0.209,0-0.321s-0.011-0.22-0.031-0.321c-0.021-0.347-0.041-0.744-0.061-1.192c-0.021-0.448-0.035-0.918-0.046-1.407
			s-0.021-0.973-0.031-1.452c-0.01-0.479-0.015-0.934-0.015-1.36v-7.493c0-0.387,0.02-0.704,0.061-0.949
			c0.042-0.244,0.112-0.478,0.215-0.704c0.122-0.081,0.24-0.147,0.352-0.197c0.111-0.051,0.245-0.087,0.398-0.108
			c0.152-0.02,0.35-0.03,0.596-0.03c0.244,0,0.57,0,0.978,0c-0.021,0.917-0.035,1.895-0.046,2.936
			c-0.009,1.039-0.015,2.171-0.015,3.395v13.669c-0.04,0.043-0.198,0.135-0.474,0.276c-0.275,0.143-0.556,0.214-0.841,0.214
			c-0.144,0-0.347-0.011-0.611-0.031c-0.266-0.021-0.48-0.061-0.644-0.122c-0.652-1.182-1.351-2.416-2.094-3.7
			c-0.745-1.284-1.504-2.62-2.278-4.006l-1.254-2.294c-0.327-0.651-0.658-1.351-0.994-2.095s-0.668-1.463-0.993-2.155
			c-0.164-0.347-0.291-0.622-0.383-0.827c-0.092-0.204-0.209-0.458-0.352-0.764c0.061,1.162,0.106,2.339,0.138,3.531
			c0.029,1.193,0.055,2.229,0.076,3.104v7.218c0,0.408-0.021,0.729-0.062,0.963c-0.041,0.234-0.112,0.465-0.214,0.688
			c-0.082,0.103-0.173,0.181-0.276,0.23c-0.102,0.051-0.239,0.087-0.412,0.106c-0.173,0.021-0.393,0.036-0.657,0.046
			c-0.266,0.01-0.602,0.016-1.01,0.016c0.021-0.896,0.036-1.865,0.046-2.905c0.011-1.039,0.017-2.172,0.017-3.395V13.161
			c-0.062-0.081-0.139-0.178-0.23-0.29c-0.091-0.112-0.137-0.188-0.137-0.23v-0.092c0-0.08,0.009-0.142,0.029-0.183
			c0.082-0.041,0.21-0.076,0.384-0.106c0.172-0.032,0.366-0.057,0.581-0.077c0.213-0.02,0.422-0.036,0.626-0.046
			c0.204-0.01,0.367-0.015,0.489-0.015c0.307,0,0.612,0.092,0.918,0.275c0.347,0.653,0.759,1.401,1.238,2.248
			c0.479,0.846,1.004,1.758,1.575,2.737c0.285,0.47,0.56,0.944,0.825,1.422s0.541,0.974,0.825,1.482L344.832,22.151z"/>
	</g>
</g>
</svg>
