<?xml version="1.0" encoding="utf-8"?>
<!-- Generator: Adobe Illustrator 16.0.0, SVG Export Plug-In . SVG Version: 6.00 Build 0)  -->
<!DOCTYPE svg PUBLIC "-//W3C//DTD SVG 1.1//EN" "http://www.w3.org/Graphics/SVG/1.1/DTD/svg11.dtd">
<svg version="1.1" id="Layer_1" xmlns="http://www.w3.org/2000/svg" xmlns:xlink="http://www.w3.org/1999/xlink" x="0px" y="0px"
	 width="230px" height="230px" viewBox="0 0 230 230" enable-background="new 0 0 230 230" xml:space="preserve">
<circle fill="#FFFFFF" cx="115" cy="115" r="115"/>
<g>
	<g>
		<defs>
			<path id="SVGID_1_" d="M108.367,186.813c-6.177,2.061-10.771-1.712-12.66-2.062c-0.266,0.022-2.968-1.702-2.062-2.649
				c-4.03-4.215-6.281-6.755-11.959-9.135c-0.266,0.021-0.533,0.047-0.797,0.068c-2.399-2.226-5.888-3.241-8.446-5.292
				c-0.265,0.021-0.527,0.044-0.794,0.066c-1.221-2.443-4.644-2.449-5.267-5.557c1.633-0.455,2.145,0.335,3.239,0.475
				c1.755-0.461-0.313-3.953,1.208-4.603c-1.999-0.293-2.373,2.79-4.7,1.148c-2.033,0.352,1.198,1.188,0.253,2.979
				c-2.434-0.827-3.507-3.168-5.939-3.997c-1.208-0.288-2.097-0.935-3.302-1.221c-1.732-0.524-2.54-2.072-4.956-1.836
				c-6.184-2.635-11.317-6.442-19.022-7.392c-3.219-2.128-10.799,0.587-13.751-1.839c2.473,0.333,2.832-1.008,4.703-1.149
				c2.288-1.761,6.277,1.422,7.021-2.093c3.437-0.233,1.524,0.829,3.429,2.709c1.219-0.841,1.657-2.142,0.539-3.048
				c-0.237-1.636-3.393-0.029-4.827-0.343c-0.528,0.047-1.057,0.09-1.588,0.137c0.424-2.344,7.334-2.034,4.386-4.875
				c0.266-0.022,0.528-0.044,0.795-0.064c4.734-0.092,11.058,0.903,10.802-4.67c1.057-0.088,2.116-0.18,3.174-0.27
				c3.764,0.167,5.906,2.138,10.516,1.361c0.235,1.641,3.393,0.033,4.826,0.344c1.659-0.775,1.006-3.377,2.005-4.673
				c8.933-3.112,10.184-6.104,13.224-13.877c0.558-0.716,0.709-1.756,0.539-3.049c1.444-7.432,3.761-14.174,7.095-20.11
				c-0.02-0.248-0.042-0.496-0.062-0.745c2.969-2.984-1.594-16.172,0.318-19.994c0.938,0.045,6.731,10.26,6.929,11.125
				c6.926-5.416,8.04-15.428,10.752-24.171c-0.042-0.499-0.085-0.996-0.125-1.493c1.057-0.32,0.499-1.921,0.541-3.048
				c0.77-0.086,0.537-0.963,0.666-1.555c-0.477-1.768-2.044-7.844-2.879-9.895c1.839,0.404,4.023,10.252,4.656,11.993
				c0.086,0.994,0.169,1.986,0.252,2.983c-1.072,2.396-0.696,5.936-1.688,8.394c2.581-3.288,4.329-7.235,6.264-11.033
				c-0.021-0.251-0.04-0.496-0.061-0.746c1.021-0.58,1.341-1.718,1.332-3.115c0.73-1.048,0.548-2.812,1.274-3.861
				c0.918-0.198,0.556-1.416,0.605-2.302c0.919-0.199,0.553-1.415,0.604-2.302c3.076-5.447-3.157-21.223,1.428-25.476
				c0.128,7.17,4.793,17.752,3.275,24.328c-0.561,0.715-0.712,1.756-0.545,3.047c-1.67,3.312-3.021,6.881-3.88,10.835
				c2.994-2.731,4.959-6.273,6.326-10.292c1.025-0.58,1.346-1.717,1.335-3.115c4.161-6.446,7.681-22.294,11.679-28.868
				c0.544,6.599-3.129,18.315-3.99,25.218c0.022,0.247,0.045,0.495,0.064,0.743c-0.771,0.086-0.538,0.962-0.667,1.56
				c-1.344,2.398-3.579,2.026-1.941,5.417c-1.535,1.567-3.068,3.134-3.529,5.548c-0.952,2.727-5.032,2.975-5.913,5.757
				c5.639,1.891,7.76-4.98,9.694-8.325c0.127-0.826,1.537-0.641,1.461-1.626c1.739-1.175,2.298-3.286,3.595-4.806
				c-0.021-0.248-0.041-0.497-0.064-0.746c4.992-6.711,9.195-19.154,13.673-26.272c2.118,6.221-4.672,15.472-0.071,16.864
				c-1.279,0.33-4.394,2.248-4.326,5.619c0.023,0.25,0.043,0.498,0.065,0.746c-1.108,0.746-2.422,1.327-2.13,3.183
				c-1.023,0.58-1.345,1.717-1.336,3.114c-6.007,3.13,5.793,10.835-12.43,13.811c-2.199-1.659-3.747,1.12-4.573,2.638
				c-3.88,1.927-8.02,6.927-6.267,11.036c3.136-2.623,5.711-5.683,8.902-8.26c0.265-0.021,0.528-0.045,0.793-0.067
				c3.37,0.593,7.833-3.377,9.882-6.086c6.69,3.487,14.543-5.946,19.097-10.622c1.996-0.043,2.389-1.356,2.985-2.505
				c2.001-0.043,2.39-1.354,2.987-2.504c0.634-0.197,0.729-0.814,1.526-0.881c0.68-0.391,5.941-6.13,6.036-6.98
				c2.705,1.284-4.467,6.355-1.592,7.957c-0.77,0.083-1.541,4.668-1.673,5.263c-5.721,7.76-14.624,13.817-23.845,18.809
				c1.569,1.423,4.802-1.724,6.162-2.772c5.71-0.457,22.428-16.704,26.12-14.157c-1.646,3.338-14.405,15.31-17.861,17.211
				c3.831,5.8-3.004,12.732-5.697,17.741c2.556,0.79,19.728-8.263,22.365-8.681c0.138,4.672-20.188,16.734-18.848,21.892
				c-3.242,0.062-1.769,0.425-1.399,2.37c-1.667,0.77-2.544,2.158-5.432,1.96c0.011,1.347,10.438,1.252,10.38,2.677
				c-2.295-0.425-11.3,1.46-13.241,1.317c-0.53,0.047-1.059,0.092-1.59,0.136c-1.684-0.177-2.059,0.688-3.113,1.013
				c1.968,3.354,4.839,2.562,8.135,1.564c-0.77,3.022,19.698-0.784,20.792,0.178c-0.093,4.098-20.261,8.585-23.088,10.521
				c0.918,1.913,11.609-0.311,9.43,2.521c-0.267,0.021,13.923-0.819,13.658-0.798c-1.38,0.532-24.991,5.578-25.57,6.744
				c-0.509,2.465,2.675,0.826,3.365,1.968c0.038,1.862-2.67,0.444-3.177,0.269c-0.089,1.103,20.412-0.076,22.722,1.364
				c0.084,0.992-12.528,6.96-12.444,7.954c-2.528-0.146-11.679,1.623-13.299,2.195c1.94,4.568,27.693,2.881,28.403,4.169
				c0.039,0.728-31.812,4.954-32.412,5.175c-1.908,1.504-3.476,3.277-6.897,3.583c-0.656-0.087-0.854-0.684-1.652-0.609
				c-1.057,0.323,7.813,3.058,7.775,4.183c-6.159-0.493-15.732-7.569-20.985-9.066c1.578,6.207,7.673,6.68,8.952,11.245
				c-3.161-0.021-4.522-2.038-6.67-3.184c-1.343,2.547,0.593,4.006,2.889,5.759c2.785-0.458-2.975-1.78-0.189-2.24
				c2.446-0.561,3.923,0.604,2.572,2.038c0.948-0.412,1.549-1.092,1.398-2.373c2.814,1.573-1.25,4.481,2.949,6.507
				c2.276-0.829-0.678-2.361-0.314-3.729c3.17,0.55,6.278,1.177,9.72,1.431c0.757,0.523,1.858,0.649,3.238,0.476
				c2.715,1.06,6.008,1.479,9.72,1.428c1.49,1.062,4.314,0.642,6.476,0.956c0.532-0.046,1.063-0.091,1.592-0.136
				c3.114,0.887,7.253,0.631,11.244,0.546c1.938,0.294,3.711,0.767,6.417,0.209c-0.103,1.742,2.362,0.636,2.571,2.033
				c0.908,3.5-2.421,3.652-4.391,4.878c1.481,2.43,5.04,2.553,6.795,4.673c0.266-0.021,0.531-0.042,0.796-0.066
				c1.369,1.745,5.048,0.916,5.144,4.069c-0.657,0.637-1.727,0.955-3.111,1.015c-1.061,0.09-2.12,0.18-3.179,0.269
				c-1.535,2.885,2.409,2.669-0.415,4.538c-6.513-1.188-10.627,0.043-16.676,1.411c-2.182-0.048-5.56,0.022-8.863-0.751
				c-1.212-1.095-2.895-1.672-4.952-1.831c-0.656-0.087-0.855-0.682-1.652-0.611c-1.757-1.036-3.442-2.155-5.812-2.509
				c-2.078-1.766-4.697-2.938-7.526-3.867c-1.742-4.02-8.236-0.903-10.323,0.874c-3.554,1.824-3.795,2.896-8.499,3.807
				c-1.417,2.605-5.736,0.083-3.682,0.883 M134.088,73.974c1.062-1.513,7.136-2.652,5.244-4.194
				C138.27,71.289,132.195,72.43,134.088,73.974z M135.538,91.112c-5.155,0.789-11.488,0.646-14.101,3.445
				c3.824,0.521,10.546-2.183,15.754-2.833c2.66-0.451,5.393-0.837,7.019-2.099C141.576,90.323,136.755,89.29,135.538,91.112z
				 M66.907,130.692c2.804,0.365,2.958-1.369,5.498-1.218c-0.043-0.496-0.085-0.992-0.129-1.487
				c-0.796,0.068-0.996-0.522-1.652-0.615C70.134,129.072,66.973,128.658,66.907,130.692z M65.699,135.296
				c2.597-0.734,1.406,1.434,0.982,2.168c3.473-0.519,7.345-4.356,4.988-7.177C69.167,131.552,66.576,132.746,65.699,135.296z
				 M46.412,143.684c1.091-1.678,2.353-5.112-1.235-5.149C45.78,140.04,44.61,143.511,46.412,143.684z M72.014,143.766
				c1.416-1.009,2.546-5.817-1.237-5.146C70.9,141.131,69.523,142.694,72.014,143.766z M113.939,147.721
				c-1.022-5.358-8.682-13.323-12.482-5.696c2.264,3.479,5.867,9.771,9.555,8.948c-3.106-1.815-7.12-6.585-7.296-10.638
				c1.807,2.173,1.418,3.158,3.681,5.69C110.295,143.318,112.949,148.689,113.939,147.721z M48.25,146.531
				c1.336,1.437,5.884-2.815,5.372-2.706C50.951,144.027,49.511,145.204,48.25,146.531z M102.023,148.729
				c-2.101-0.95-5.643-4.551-7.461-3.117C96.61,146.627,99.775,150.645,102.023,148.729z M113.84,155.984
				c-0.481,0.087-0.93,0.189-0.733,0.813c3.537-0.441-0.618-4.135-1.967-4.336c0.125,1.022-0.235,1.667-0.602,2.304
				C111.107,155.758,113.602,154.618,113.84,155.984z"/>
		</defs>
		<clipPath id="SVGID_2_">
			<use xlink:href="#SVGID_1_"  overflow="visible" opacity="0.62"/>
		</clipPath>
		
			<circle clip-path="url(#SVGID_2_)" fill-rule="evenodd" clip-rule="evenodd" fill="#F68A44" cx="164.744" cy="115.692" r="5.455"/>
		<circle clip-path="url(#SVGID_2_)" fill-rule="evenodd" clip-rule="evenodd" fill="#F68A44" cx="89.416" cy="81.462" r="5.389"/>
		
			<circle clip-path="url(#SVGID_2_)" fill-rule="evenodd" clip-rule="evenodd" fill="#F68A44" cx="114.649" cy="78.804" r="14.035"/>
		<circle clip-path="url(#SVGID_2_)" fill-rule="evenodd" clip-rule="evenodd" fill="#F68A44" cx="118.16" cy="58.642" r="6.437"/>
		<path clip-path="url(#SVGID_2_)" fill-rule="evenodd" clip-rule="evenodd" fill="#F68A44" d="M141.147,72.981
			c0,4.363-3.536,7.9-7.898,7.9c-4.364,0-7.902-3.537-7.902-7.9c0-4.366,3.538-7.904,7.902-7.904
			C137.611,65.077,141.147,68.615,141.147,72.981z"/>
		<circle clip-path="url(#SVGID_2_)" fill-rule="evenodd" clip-rule="evenodd" fill="#F68A44" cx="132.18" cy="48.063" r="4.141"/>
		<circle clip-path="url(#SVGID_2_)" fill-rule="evenodd" clip-rule="evenodd" fill="#F68A44" cx="129.785" cy="30.594" r="3.46"/>
		<circle clip-path="url(#SVGID_2_)" fill-rule="evenodd" clip-rule="evenodd" fill="#F68A44" cx="157.948" cy="86.888" r="4.829"/>
		<circle clip-path="url(#SVGID_2_)" fill-rule="evenodd" clip-rule="evenodd" fill="#F68A44" cx="154.003" cy="83.434" r="4.514"/>
		<path clip-path="url(#SVGID_2_)" fill-rule="evenodd" clip-rule="evenodd" fill="#F68A44" d="M149.097,100.739
			c0,3.97-3.22,7.192-7.192,7.192c-3.974,0-7.195-3.223-7.195-7.192c0-3.974,3.222-7.197,7.195-7.197
			C145.877,93.542,149.097,96.766,149.097,100.739z"/>
		
			<circle clip-path="url(#SVGID_2_)" fill-rule="evenodd" clip-rule="evenodd" fill="#F68A44" cx="145.714" cy="113.219" r="5.249"/>
		<circle clip-path="url(#SVGID_2_)" fill-rule="evenodd" clip-rule="evenodd" fill="#F68A44" cx="94.603" cy="83.409" r="3.802"/>
		
			<circle clip-path="url(#SVGID_2_)" fill-rule="evenodd" clip-rule="evenodd" fill="#F68A44" cx="92.267" cy="133.019" r="11.871"/>
		<path clip-path="url(#SVGID_2_)" fill-rule="evenodd" clip-rule="evenodd" fill="#F68A44" d="M122.4,134.043
			c0,5.578-4.523,10.105-10.104,10.105c-5.582,0-10.106-4.527-10.106-10.105c0-5.582,4.524-10.106,10.106-10.106
			C117.877,123.937,122.4,128.461,122.4,134.043z"/>
		<circle clip-path="url(#SVGID_2_)" fill-rule="evenodd" clip-rule="evenodd" fill="#F68A44" cx="125.935" cy="135.352" r="7.95"/>
		<circle clip-path="url(#SVGID_2_)" fill-rule="evenodd" clip-rule="evenodd" fill="#F68A44" cx="49.823" cy="142.635" r="6.428"/>
		<circle clip-path="url(#SVGID_2_)" fill-rule="evenodd" clip-rule="evenodd" fill="#F68A44" cx="55.958" cy="152.02" r="5.201"/>
		<path clip-path="url(#SVGID_2_)" fill-rule="evenodd" clip-rule="evenodd" fill="#F68A44" d="M85.988,143.122
			c0,4.074-3.3,7.375-7.372,7.375c-4.076,0-7.378-3.301-7.378-7.375c0-4.073,3.302-7.376,7.378-7.376
			C82.688,135.746,85.988,139.049,85.988,143.122z"/>
		
			<circle clip-path="url(#SVGID_2_)" fill-rule="evenodd" clip-rule="evenodd" fill="#F68A44" cx="173.144" cy="106.962" r="3.336"/>
		
			<circle clip-path="url(#SVGID_2_)" fill-rule="evenodd" clip-rule="evenodd" fill="#F89F66" cx="83.227" cy="179.388" r="11.578"/>
		
			<circle clip-path="url(#SVGID_2_)" fill-rule="evenodd" clip-rule="evenodd" fill="#F89F66" cx="118.538" cy="119.551" r="11.938"/>
		<circle clip-path="url(#SVGID_2_)" fill-rule="evenodd" clip-rule="evenodd" fill="#F89F66" cx="135.737" cy="22.665" r="4.614"/>
		<circle clip-path="url(#SVGID_2_)" fill-rule="evenodd" clip-rule="evenodd" fill="#F89F66" cx="133.885" cy="64.611" r="5.201"/>
		
			<circle clip-path="url(#SVGID_2_)" fill-rule="evenodd" clip-rule="evenodd" fill="#F89F66" cx="121.323" cy="103.34" r="12.562"/>
		<circle clip-path="url(#SVGID_2_)" fill-rule="evenodd" clip-rule="evenodd" fill="#F89F66" cx="43.128" cy="149.807" r="5.524"/>
		<circle clip-path="url(#SVGID_2_)" fill-rule="evenodd" clip-rule="evenodd" fill="#F89F66" cx="62.39" cy="161.421" r="5.256"/>
		<path clip-path="url(#SVGID_2_)" fill-rule="evenodd" clip-rule="evenodd" fill="#F89F66" d="M95.412,126.031
			c0,5.286-4.286,9.572-9.569,9.572c-5.288,0-9.573-4.286-9.573-9.572c0-5.285,4.285-9.572,9.573-9.572
			C91.126,116.459,95.412,120.746,95.412,126.031z"/>
		<circle clip-path="url(#SVGID_2_)" fill-rule="evenodd" clip-rule="evenodd" fill="#F89F66" cx="96.295" cy="151.433" r="8.636"/>
		
			<circle clip-path="url(#SVGID_2_)" fill-rule="evenodd" clip-rule="evenodd" fill="#F89F66" cx="107.679" cy="164.043" r="7.557"/>
		
			<circle clip-path="url(#SVGID_2_)" fill-rule="evenodd" clip-rule="evenodd" fill="#F89F66" cx="123.971" cy="166.842" r="7.459"/>
		<path clip-path="url(#SVGID_2_)" fill-rule="evenodd" clip-rule="evenodd" fill="#F89F66" d="M152.239,192.554
			c0,3.2-2.595,5.793-5.792,5.793c-3.198,0-5.789-2.593-5.789-5.793c0-3.195,2.591-5.791,5.789-5.791
			C149.645,186.763,152.239,189.358,152.239,192.554z"/>
		<path clip-path="url(#SVGID_2_)" fill-rule="evenodd" clip-rule="evenodd" fill="#F89F66" d="M170.004,172.932
			c0,2.383-1.936,4.316-4.319,4.316c-2.387,0-4.319-1.934-4.319-4.316c0-2.387,1.933-4.318,4.319-4.318
			C168.068,168.613,170.004,170.545,170.004,172.932z"/>
		<path clip-path="url(#SVGID_2_)" fill-rule="evenodd" clip-rule="evenodd" fill="#F89F66" d="M167.058,175.829
			c0,2.142-1.735,3.882-3.882,3.882s-3.887-1.74-3.887-3.882c0-2.147,1.74-3.884,3.887-3.884S167.058,173.682,167.058,175.829z"/>
		<circle clip-path="url(#SVGID_2_)" fill-rule="evenodd" clip-rule="evenodd" fill="#F89F66" cx="174.322" cy="167.97" r="3.925"/>
		<circle clip-path="url(#SVGID_2_)" fill-rule="evenodd" clip-rule="evenodd" fill="#F89F66" cx="176.48" cy="176.655" r="1.767"/>
		
			<circle clip-path="url(#SVGID_2_)" fill-rule="evenodd" clip-rule="evenodd" fill="#F89F66" cx="181.033" cy="182.654" r="3.938"/>
		<circle clip-path="url(#SVGID_2_)" fill-rule="evenodd" clip-rule="evenodd" fill="#F89F66" cx="175.371" cy="38.597" r="5.662"/>
		<circle clip-path="url(#SVGID_2_)" fill-rule="evenodd" clip-rule="evenodd" fill="#F47526" cx="147.035" cy="19.623" r="2.062"/>
		<circle clip-path="url(#SVGID_2_)" fill-rule="evenodd" clip-rule="evenodd" fill="#F47526" cx="135.576" cy="16.26" r="2.331"/>
		<path opacity="0.83" clip-path="url(#SVGID_2_)" fill-rule="evenodd" clip-rule="evenodd" fill="#F47526" d="M147.775,177.867
			c0,6.025-4.882,10.908-10.905,10.908c-6.022,0-10.905-4.883-10.905-10.908c0-6.02,4.883-10.901,10.905-10.901
			C142.894,166.966,147.775,171.848,147.775,177.867z"/>
		
			<circle opacity="0.87" clip-path="url(#SVGID_2_)" fill-rule="evenodd" clip-rule="evenodd" fill="#F47526" cx="102.469" cy="103.344" r="7.664"/>
		<circle clip-path="url(#SVGID_2_)" fill-rule="evenodd" clip-rule="evenodd" fill="#F47526" cx="126.625" cy="92.199" r="8.084"/>
		<path clip-path="url(#SVGID_2_)" fill-rule="evenodd" clip-rule="evenodd" fill="#F47526" d="M145.429,115.287
			c0,2.362-1.918,4.276-4.281,4.276c-2.36,0-4.277-1.914-4.277-4.276c0-2.364,1.917-4.281,4.277-4.281
			C143.511,111.006,145.429,112.923,145.429,115.287z"/>
		<circle clip-path="url(#SVGID_2_)" fill-rule="evenodd" clip-rule="evenodd" fill="#F47526" cx="150.003" cy="119.86" r="4.574"/>
		<path clip-path="url(#SVGID_2_)" fill-rule="evenodd" clip-rule="evenodd" fill="#F47526" d="M161.365,117.361
			c0,1.146-0.927,2.072-2.076,2.072c-1.145,0-2.073-0.927-2.073-2.072c0-1.146,0.929-2.074,2.073-2.074
			C160.438,115.287,161.365,116.215,161.365,117.361z"/>
		<circle clip-path="url(#SVGID_2_)" fill-rule="evenodd" clip-rule="evenodd" fill="#F47526" cx="88.05" cy="114.234" r="5.005"/>
		
			<circle clip-path="url(#SVGID_2_)" fill-rule="evenodd" clip-rule="evenodd" fill="#F47526" cx="103.166" cy="115.805" r="7.557"/>
		<path opacity="0.87" clip-path="url(#SVGID_2_)" fill-rule="evenodd" clip-rule="evenodd" fill="#F47526" d="M96.108,102.21
			c0,3.604-2.928,6.528-6.532,6.528c-3.606,0-6.531-2.924-6.531-6.528c0-3.607,2.925-6.53,6.531-6.53
			C93.181,95.68,96.108,98.603,96.108,102.21z"/>
		<circle clip-path="url(#SVGID_2_)" fill-rule="evenodd" clip-rule="evenodd" fill="#F47526" cx="91.633" cy="93.771" r="5.153"/>
		<circle clip-path="url(#SVGID_2_)" fill-rule="evenodd" clip-rule="evenodd" fill="#F47526" cx="99.149" cy="80.375" r="3.041"/>
		<circle clip-path="url(#SVGID_2_)" fill-rule="evenodd" clip-rule="evenodd" fill="#F47526" cx="89.158" cy="75.397" r="3.111"/>
		<circle clip-path="url(#SVGID_2_)" fill-rule="evenodd" clip-rule="evenodd" fill="#F47526" cx="99.976" cy="92.985" r="4.367"/>
		
			<circle opacity="0.74" clip-path="url(#SVGID_2_)" fill-rule="evenodd" clip-rule="evenodd" fill="#F47526" cx="104.138" cy="91.564" r="9.333"/>
		
			<circle opacity="0.8" clip-path="url(#SVGID_2_)" fill-rule="evenodd" clip-rule="evenodd" fill="#F47526" cx="115.509" cy="105.619" r="8.265"/>
		<circle clip-path="url(#SVGID_2_)" fill-rule="evenodd" clip-rule="evenodd" fill="#F47526" cx="115.875" cy="62.561" r="4.465"/>
		<circle clip-path="url(#SVGID_2_)" fill-rule="evenodd" clip-rule="evenodd" fill="#F47526" cx="115.384" cy="52.354" r="2.896"/>
		<circle clip-path="url(#SVGID_2_)" fill-rule="evenodd" clip-rule="evenodd" fill="#F47526" cx="118.145" cy="43.753" r="2.27"/>
		<circle clip-path="url(#SVGID_2_)" fill-rule="evenodd" clip-rule="evenodd" fill="#F47526" cx="117.446" cy="36.405" r="2.061"/>
		
			<circle opacity="0.87" clip-path="url(#SVGID_2_)" fill-rule="evenodd" clip-rule="evenodd" fill="#F47526" cx="116.299" cy="30.695" r="2.241"/>
		<circle clip-path="url(#SVGID_2_)" fill-rule="evenodd" clip-rule="evenodd" fill="#F47526" cx="116.22" cy="24.432" r="1.57"/>
		
			<circle opacity="0.78" clip-path="url(#SVGID_2_)" fill-rule="evenodd" clip-rule="evenodd" fill="#F47526" cx="119.844" cy="40.521" r="3.233"/>
		<circle clip-path="url(#SVGID_2_)" fill-rule="evenodd" clip-rule="evenodd" fill="#F47526" cx="123.087" cy="52.129" r="2.672"/>
		<path clip-path="url(#SVGID_2_)" fill-rule="evenodd" clip-rule="evenodd" fill="#F47526" d="M111.998,63.684
			c0,2.709-2.196,4.906-4.902,4.906c-2.708,0-4.905-2.197-4.905-4.906c0-2.706,2.197-4.901,4.905-4.901
			C109.802,58.783,111.998,60.978,111.998,63.684z"/>
		
			<circle opacity="0.87" clip-path="url(#SVGID_2_)" fill-rule="evenodd" clip-rule="evenodd" fill="#F47526" cx="107.483" cy="53.777" r="4.318"/>
		<circle clip-path="url(#SVGID_2_)" fill-rule="evenodd" clip-rule="evenodd" fill="#F47526" cx="144.19" cy="67.614" r="6.773"/>
		<path clip-path="url(#SVGID_2_)" fill-rule="evenodd" clip-rule="evenodd" fill="#F47526" d="M157.216,61.706
			c0,3.813-3.093,6.906-6.903,6.906c-3.814,0-6.908-3.093-6.908-6.906s3.094-6.907,6.908-6.907
			C154.123,54.799,157.216,57.893,157.216,61.706z"/>
		<circle clip-path="url(#SVGID_2_)" fill-rule="evenodd" clip-rule="evenodd" fill="#F47526" cx="134.425" cy="55.593" r="5.152"/>
		<circle clip-path="url(#SVGID_2_)" fill-rule="evenodd" clip-rule="evenodd" fill="#F47526" cx="135.406" cy="46.465" r="4.171"/>
		<circle clip-path="url(#SVGID_2_)" fill-rule="evenodd" clip-rule="evenodd" fill="#F47526" cx="136.411" cy="37.508" r="3.166"/>
		
			<circle opacity="0.87" clip-path="url(#SVGID_2_)" fill-rule="evenodd" clip-rule="evenodd" fill="#F47526" cx="141.44" cy="30.811" r="3.533"/>
		<path clip-path="url(#SVGID_2_)" fill-rule="evenodd" clip-rule="evenodd" fill="#F47526" d="M145.762,39.203
			c0,1.707-1.386,3.09-3.094,3.09c-1.706,0-3.091-1.383-3.091-3.09c0-1.709,1.385-3.093,3.091-3.093
			C144.376,36.11,145.762,37.494,145.762,39.203z"/>
		
			<circle opacity="0.76" clip-path="url(#SVGID_2_)" fill-rule="evenodd" clip-rule="evenodd" fill="#F47526" cx="146.938" cy="27.129" r="4.27"/>
		<circle clip-path="url(#SVGID_2_)" fill-rule="evenodd" clip-rule="evenodd" fill="#F47526" cx="125.886" cy="56.083" r="4.368"/>
		<circle clip-path="url(#SVGID_2_)" fill-rule="evenodd" clip-rule="evenodd" fill="#F47526" cx="125.122" cy="43.494" r="4.292"/>
		<circle clip-path="url(#SVGID_2_)" fill-rule="evenodd" clip-rule="evenodd" fill="#F47526" cx="122.052" cy="51.377" r="2.545"/>
		<path opacity="0.87" clip-path="url(#SVGID_2_)" fill-rule="evenodd" clip-rule="evenodd" fill="#F47526" d="M131.123,38.558
			c0,2.653-2.147,4.803-4.799,4.803c-2.656,0-4.806-2.15-4.806-4.803s2.149-4.804,4.806-4.804
			C128.976,33.754,131.123,35.905,131.123,38.558z"/>
		<circle clip-path="url(#SVGID_2_)" fill-rule="evenodd" clip-rule="evenodd" fill="#F47526" cx="140.945" cy="46.691" r="5.208"/>
		<circle clip-path="url(#SVGID_2_)" fill-rule="evenodd" clip-rule="evenodd" fill="#F47526" cx="128.486" cy="68.5" r="5.399"/>
		
			<circle opacity="0.88" clip-path="url(#SVGID_2_)" fill-rule="evenodd" clip-rule="evenodd" fill="#F47526" cx="151.684" cy="55.971" r="5.532"/>
		
			<circle opacity="0.87" clip-path="url(#SVGID_2_)" fill-rule="evenodd" clip-rule="evenodd" fill="#F47526" cx="158.953" cy="47.291" r="6.616"/>
		<circle clip-path="url(#SVGID_2_)" fill-rule="evenodd" clip-rule="evenodd" fill="#F47526" cx="162.052" cy="63.336" r="3.925"/>
		
			<circle opacity="0.9" clip-path="url(#SVGID_2_)" fill-rule="evenodd" clip-rule="evenodd" fill="#F47526" cx="147.894" cy="76.571" r="5.226"/>
		
			<circle opacity="0.87" clip-path="url(#SVGID_2_)" fill-rule="evenodd" clip-rule="evenodd" fill="#F47526" cx="154.397" cy="73.408" r="4.908"/>
		<circle clip-path="url(#SVGID_2_)" fill-rule="evenodd" clip-rule="evenodd" fill="#F47526" cx="138.577" cy="86.085" r="6.396"/>
		<path clip-path="url(#SVGID_2_)" fill-rule="evenodd" clip-rule="evenodd" fill="#F47526" d="M169.808,81.832
			c0,1.94-1.576,3.516-3.515,3.516c-1.944,0-3.517-1.575-3.517-3.516c0-1.944,1.572-3.517,3.517-3.517
			C168.231,78.315,169.808,79.888,169.808,81.832z"/>
		<circle clip-path="url(#SVGID_2_)" fill-rule="evenodd" clip-rule="evenodd" fill="#F47526" cx="169.708" cy="75.035" r="2.749"/>
		<circle clip-path="url(#SVGID_2_)" fill-rule="evenodd" clip-rule="evenodd" fill="#F47526" cx="148.262" cy="90.204" r="4.857"/>
		<circle clip-path="url(#SVGID_2_)" fill-rule="evenodd" clip-rule="evenodd" fill="#F47526" cx="133.785" cy="114.53" r="5.301"/>
		<circle clip-path="url(#SVGID_2_)" fill-rule="evenodd" clip-rule="evenodd" fill="#F47526" cx="139.577" cy="92.544" r="3.827"/>
		
			<circle opacity="0.87" clip-path="url(#SVGID_2_)" fill-rule="evenodd" clip-rule="evenodd" fill="#F47526" cx="135.455" cy="110.113" r="6.771"/>
		
			<circle clip-path="url(#SVGID_2_)" fill-rule="evenodd" clip-rule="evenodd" fill="#F47526" cx="153.104" cy="104.395" r="4.111"/>
		<circle clip-path="url(#SVGID_2_)" fill-rule="evenodd" clip-rule="evenodd" fill="#F47526" cx="154.26" cy="95.822" r="4.257"/>
		
			<circle clip-path="url(#SVGID_2_)" fill-rule="evenodd" clip-rule="evenodd" fill="#F47526" cx="150.571" cy="113.215" r="4.515"/>
		
			<circle clip-path="url(#SVGID_2_)" fill-rule="evenodd" clip-rule="evenodd" fill="#F47526" cx="158.845" cy="111.222" r="1.991"/>
		<circle clip-path="url(#SVGID_2_)" fill-rule="evenodd" clip-rule="evenodd" fill="#F47526" cx="166.246" cy="109.748" r="1.5"/>
		<circle clip-path="url(#SVGID_2_)" fill-rule="evenodd" clip-rule="evenodd" fill="#F47526" cx="165.576" cy="109.14" r="3.523"/>
		<path opacity="0.75" clip-path="url(#SVGID_2_)" fill-rule="evenodd" clip-rule="evenodd" fill="#F47526" d="M157.216,112.073
			c0,1.616-1.312,2.929-2.932,2.929c-1.615,0-2.929-1.312-2.929-2.929c0-1.618,1.313-2.934,2.929-2.934
			C155.903,109.14,157.216,110.455,157.216,112.073z"/>
		<path clip-path="url(#SVGID_2_)" fill-rule="evenodd" clip-rule="evenodd" fill="#F47526" d="M162.053,111.547
			c0,1.571-1.273,2.845-2.846,2.845c-1.573,0-2.848-1.273-2.848-2.845c0-1.574,1.274-2.848,2.848-2.848
			C160.779,108.699,162.053,109.973,162.053,111.547z"/>
		
			<circle clip-path="url(#SVGID_2_)" fill-rule="evenodd" clip-rule="evenodd" fill="#F47526" cx="152.922" cy="125.838" r="5.026"/>
		
			<circle clip-path="url(#SVGID_2_)" fill-rule="evenodd" clip-rule="evenodd" fill="#F47526" cx="159.568" cy="123.625" r="3.208"/>
		
			<circle opacity="0.75" clip-path="url(#SVGID_2_)" fill-rule="evenodd" clip-rule="evenodd" fill="#F47526" cx="146.613" cy="126.798" r="8.473"/>
		
			<circle clip-path="url(#SVGID_2_)" fill-rule="evenodd" clip-rule="evenodd" fill="#F47526" cx="129.653" cy="125.865" r="5.056"/>
		
			<circle opacity="0.88" clip-path="url(#SVGID_2_)" fill-rule="evenodd" clip-rule="evenodd" fill="#F47526" cx="135.456" cy="120.584" r="4.121"/>
		
			<circle clip-path="url(#SVGID_2_)" fill-rule="evenodd" clip-rule="evenodd" fill="#F47526" cx="136.136" cy="126.717" r="4.801"/>
		<circle clip-path="url(#SVGID_2_)" fill-rule="evenodd" clip-rule="evenodd" fill="#F47526" cx="100.226" cy="72.224" r="4.117"/>
		<path clip-path="url(#SVGID_2_)" fill-rule="evenodd" clip-rule="evenodd" fill="#F47526" d="M105.375,67.471
			c0,1.487-1.21,2.698-2.7,2.698s-2.7-1.211-2.7-2.698c0-1.493,1.21-2.701,2.7-2.701S105.375,65.978,105.375,67.471z"/>
		<circle clip-path="url(#SVGID_2_)" fill-rule="evenodd" clip-rule="evenodd" fill="#F47526" cx="85.33" cy="92.963" r="4.247"/>
		<path clip-path="url(#SVGID_2_)" fill-rule="evenodd" clip-rule="evenodd" fill="#F47526" d="M94.602,88.282
			c0,1.211-0.981,2.194-2.194,2.194c-1.215,0-2.196-0.983-2.196-2.194c0-1.215,0.981-2.197,2.196-2.197
			C93.62,86.085,94.602,87.067,94.602,88.282z"/>
		<path clip-path="url(#SVGID_2_)" fill-rule="evenodd" clip-rule="evenodd" fill="#F47526" d="M86.872,111.242
			c0,2.736-2.218,4.954-4.956,4.954c-2.737,0-4.956-2.218-4.956-4.954c0-2.739,2.219-4.958,4.956-4.958
			C84.654,106.284,86.872,108.503,86.872,111.242z"/>
		<circle clip-path="url(#SVGID_2_)" fill-rule="evenodd" clip-rule="evenodd" fill="#F47526" cx="78.335" cy="120.024" r="4.122"/>
		<circle clip-path="url(#SVGID_2_)" fill-rule="evenodd" clip-rule="evenodd" fill="#F47526" cx="74.949" cy="130.839" r="6.134"/>
		
			<circle opacity="0.85" clip-path="url(#SVGID_2_)" fill-rule="evenodd" clip-rule="evenodd" fill="#F47526" cx="95.413" cy="118.414" r="5.202"/>
		<circle clip-path="url(#SVGID_2_)" fill-rule="evenodd" clip-rule="evenodd" fill="#F47526" cx="122.305" cy="151.138" r="4.32"/>
		
			<circle opacity="0.87" clip-path="url(#SVGID_2_)" fill-rule="evenodd" clip-rule="evenodd" fill="#F47526" cx="52.866" cy="135.777" r="7.019"/>
		<circle clip-path="url(#SVGID_2_)" fill-rule="evenodd" clip-rule="evenodd" fill="#F47526" cx="65.184" cy="133.47" r="4.025"/>
		<circle clip-path="url(#SVGID_2_)" fill-rule="evenodd" clip-rule="evenodd" fill="#F47526" cx="38.046" cy="145.101" r="4.858"/>
		<circle clip-path="url(#SVGID_2_)" fill-rule="evenodd" clip-rule="evenodd" fill="#F47526" cx="30.123" cy="148.917" r="4.633"/>
		<circle clip-path="url(#SVGID_2_)" fill-rule="evenodd" clip-rule="evenodd" fill="#F47526" cx="22.026" cy="148.974" r="3.464"/>
		
			<circle opacity="0.87" clip-path="url(#SVGID_2_)" fill-rule="evenodd" clip-rule="evenodd" fill="#F47526" cx="34.943" cy="141.332" r="4.82"/>
		<circle clip-path="url(#SVGID_2_)" fill-rule="evenodd" clip-rule="evenodd" fill="#F47526" cx="43.297" cy="134.061" r="3.927"/>
		<circle clip-path="url(#SVGID_2_)" fill-rule="evenodd" clip-rule="evenodd" fill="#F47526" cx="53.055" cy="156.164" r="4.668"/>
		<path clip-path="url(#SVGID_2_)" fill-rule="evenodd" clip-rule="evenodd" fill="#F47526" d="M66.263,147.028
			c0,3.141-2.549,5.688-5.692,5.688c-3.145,0-5.692-2.548-5.692-5.688c0-3.146,2.547-5.696,5.692-5.696
			C63.714,141.332,66.263,143.883,66.263,147.028z"/>
		<path opacity="0.78" clip-path="url(#SVGID_2_)" fill-rule="evenodd" clip-rule="evenodd" fill="#F47526" d="M69.209,142.093
			c0,3.768-3.055,6.82-6.824,6.82c-3.767,0-6.82-3.053-6.82-6.82c0-3.77,3.053-6.822,6.82-6.822
			C66.154,135.271,69.209,138.323,69.209,142.093z"/>
		<path opacity="0.83" clip-path="url(#SVGID_2_)" fill-rule="evenodd" clip-rule="evenodd" fill="#F47526" d="M72.914,138.137
			c0,4.032-3.27,7.303-7.302,7.303c-4.03,0-7.3-3.271-7.3-7.303c0-4.029,3.27-7.298,7.3-7.298
			C69.645,130.839,72.914,134.107,72.914,138.137z"/>
		
			<circle opacity="0.74" clip-path="url(#SVGID_2_)" fill-rule="evenodd" clip-rule="evenodd" fill="#F47526" cx="71.238" cy="151.658" r="6.742"/>
		<path clip-path="url(#SVGID_2_)" fill-rule="evenodd" clip-rule="evenodd" fill="#F47526" d="M80.32,168.45
			c0,3.88-3.147,7.027-7.03,7.027c-3.88,0-7.027-3.147-7.027-7.027c0-3.885,3.147-7.029,7.027-7.029
			C77.173,161.421,80.32,164.565,80.32,168.45z"/>
		
			<circle opacity="0.88" clip-path="url(#SVGID_2_)" fill-rule="evenodd" clip-rule="evenodd" fill="#F47526" cx="84.024" cy="154.916" r="8.097"/>
		<circle clip-path="url(#SVGID_2_)" fill-rule="evenodd" clip-rule="evenodd" fill="#F47526" cx="94.085" cy="156.485" r="6.037"/>
		<circle clip-path="url(#SVGID_2_)" fill-rule="evenodd" clip-rule="evenodd" fill="#F47526" cx="82.504" cy="170.228" r="5.544"/>
		<circle clip-path="url(#SVGID_2_)" fill-rule="evenodd" clip-rule="evenodd" fill="#F47526" cx="80.74" cy="163.014" r="6.527"/>
		
			<circle opacity="0.83" clip-path="url(#SVGID_2_)" fill-rule="evenodd" clip-rule="evenodd" fill="#F47526" cx="93.543" cy="168.613" r="6.276"/>
		
			<circle clip-path="url(#SVGID_2_)" fill-rule="evenodd" clip-rule="evenodd" fill="#F47526" cx="110.088" cy="149.989" r="7.897"/>
		
			<circle clip-path="url(#SVGID_2_)" fill-rule="evenodd" clip-rule="evenodd" fill="#F47526" cx="107.925" cy="170.139" r="7.803"/>
		<circle clip-path="url(#SVGID_2_)" fill-rule="evenodd" clip-rule="evenodd" fill="#F47526" cx="99.289" cy="178.717" r="5.202"/>
		
			<circle clip-path="url(#SVGID_2_)" fill-rule="evenodd" clip-rule="evenodd" fill="#F47526" cx="103.067" cy="189.832" r="7.655"/>
		
			<circle opacity="0.89" clip-path="url(#SVGID_2_)" fill-rule="evenodd" clip-rule="evenodd" fill="#F47526" cx="111.852" cy="183.576" r="8.687"/>
		
			<circle opacity="0.83" clip-path="url(#SVGID_2_)" fill-rule="evenodd" clip-rule="evenodd" fill="#F47526" cx="119.065" cy="177.882" r="8.343"/>
		
			<circle opacity="0.91" clip-path="url(#SVGID_2_)" fill-rule="evenodd" clip-rule="evenodd" fill="#F47526" cx="123.579" cy="148.194" r="8.344"/>
		
			<circle opacity="0.87" clip-path="url(#SVGID_2_)" fill-rule="evenodd" clip-rule="evenodd" fill="#F47526" cx="139.037" cy="150.222" r="5.937"/>
		
			<circle clip-path="url(#SVGID_2_)" fill-rule="evenodd" clip-rule="evenodd" fill="#F47526" cx="147.722" cy="147.292" r="5.201"/>
		<path clip-path="url(#SVGID_2_)" fill-rule="evenodd" clip-rule="evenodd" fill="#F47526" d="M159.289,147.121
			c0,1.57-1.271,2.841-2.838,2.841c-1.566,0-2.838-1.271-2.838-2.841c0-1.565,1.271-2.839,2.838-2.839
			C158.019,144.282,159.289,145.556,159.289,147.121z"/>
		
			<circle clip-path="url(#SVGID_2_)" fill-rule="evenodd" clip-rule="evenodd" fill="#F47526" cx="164.524" cy="146.033" r="1.748"/>
		
			<circle clip-path="url(#SVGID_2_)" fill-rule="evenodd" clip-rule="evenodd" fill="#F47526" cx="138.644" cy="140.686" r="7.214"/>
		
			<circle clip-path="url(#SVGID_2_)" fill-rule="evenodd" clip-rule="evenodd" fill="#F47526" cx="151.747" cy="135.544" r="4.025"/>
		<path clip-path="url(#SVGID_2_)" fill-rule="evenodd" clip-rule="evenodd" fill="#F47526" d="M165.685,136.135
			c0,2.551-2.066,4.617-4.618,4.617c-2.549,0-4.615-2.066-4.615-4.617c0-2.547,2.066-4.615,4.615-4.615
			C163.618,131.52,165.685,133.588,165.685,136.135z"/>
		
			<circle clip-path="url(#SVGID_2_)" fill-rule="evenodd" clip-rule="evenodd" fill="#F47526" cx="162.046" cy="131.927" r="2.478"/>
		<path opacity="0.88" clip-path="url(#SVGID_2_)" fill-rule="evenodd" clip-rule="evenodd" fill="#F47526" d="M151.748,134.512
			c0,3.22-2.611,5.829-5.832,5.829c-3.222,0-5.831-2.609-5.831-5.829c0-3.223,2.609-5.832,5.831-5.832
			C149.137,128.68,151.748,131.289,151.748,134.512z"/>
		<path clip-path="url(#SVGID_2_)" fill-rule="evenodd" clip-rule="evenodd" fill="#F47526" d="M134.709,151.596
			c0,3.074-2.491,5.565-5.564,5.565c-3.074,0-5.565-2.491-5.565-5.565c0-3.07,2.491-5.562,5.565-5.562
			C132.218,146.033,134.709,148.525,134.709,151.596z"/>
		<circle clip-path="url(#SVGID_2_)" fill-rule="evenodd" clip-rule="evenodd" fill="#F47526" cx="116.563" cy="160.79" r="6.025"/>
		<circle clip-path="url(#SVGID_2_)" fill-rule="evenodd" clip-rule="evenodd" fill="#F47526" cx="98.298" cy="163.433" r="3.494"/>
		<path clip-path="url(#SVGID_2_)" fill-rule="evenodd" clip-rule="evenodd" fill="#F47526" d="M87.267,163.17
			c0,1.318-1.065,2.38-2.383,2.38c-1.312,0-2.378-1.062-2.378-2.38c0-1.313,1.065-2.38,2.378-2.38
			C86.201,160.79,87.267,161.856,87.267,163.17z"/>
		<path clip-path="url(#SVGID_2_)" fill-rule="evenodd" clip-rule="evenodd" fill="#F47526" d="M91.682,163.001
			c0,1.215-0.989,2.205-2.209,2.205s-2.206-0.99-2.206-2.205c0-1.221,0.986-2.211,2.206-2.211S91.682,161.78,91.682,163.001z"/>
		
			<circle clip-path="url(#SVGID_2_)" fill-rule="evenodd" clip-rule="evenodd" fill="#F47526" cx="138.272" cy="167.606" r="3.563"/>
		<circle clip-path="url(#SVGID_2_)" fill-rule="evenodd" clip-rule="evenodd" fill="#F47526" cx="148.354" cy="170.93" r="4.568"/>
		
			<circle clip-path="url(#SVGID_2_)" fill-rule="evenodd" clip-rule="evenodd" fill="#F47526" cx="146.595" cy="180.925" r="5.153"/>
		<circle clip-path="url(#SVGID_2_)" fill-rule="evenodd" clip-rule="evenodd" fill="#F47526" cx="152.603" cy="185.91" r="4.251"/>
		<path clip-path="url(#SVGID_2_)" fill-rule="evenodd" clip-rule="evenodd" fill="#F47526" d="M158.323,182.383
			c0,2.494-2.021,4.518-4.516,4.518c-2.492,0-4.515-2.023-4.515-4.518c0-2.491,2.022-4.516,4.515-4.516
			C156.302,177.867,158.323,179.892,158.323,182.383z"/>
		<path opacity="0.71" clip-path="url(#SVGID_2_)" fill-rule="evenodd" clip-rule="evenodd" fill="#F47526" d="M159.289,177.73
			c0,3.192-2.589,5.783-5.781,5.783c-3.195,0-5.786-2.591-5.786-5.783c0-3.197,2.591-5.785,5.786-5.785
			C156.7,171.945,159.289,174.533,159.289,177.73z"/>
		
			<circle opacity="0.79" clip-path="url(#SVGID_2_)" fill-rule="evenodd" clip-rule="evenodd" fill="#F47526" cx="154.692" cy="171.757" r="5.399"/>
		<path clip-path="url(#SVGID_2_)" fill-rule="evenodd" clip-rule="evenodd" fill="#F47526" d="M164.524,168.006
			c0,2.523-2.048,4.571-4.574,4.571c-2.524,0-4.571-2.048-4.571-4.571c0-2.528,2.047-4.573,4.571-4.573
			C162.477,163.433,164.524,165.478,164.524,168.006z"/>
		
			<circle opacity="0.93" clip-path="url(#SVGID_2_)" fill-rule="evenodd" clip-rule="evenodd" fill="#F47526" cx="165.186" cy="183.05" r="5.896"/>
		<circle clip-path="url(#SVGID_2_)" fill-rule="evenodd" clip-rule="evenodd" fill="#F47526" cx="160.63" cy="190.088" r="3.188"/>
		<path clip-path="url(#SVGID_2_)" fill-rule="evenodd" clip-rule="evenodd" fill="#F47526" d="M160.63,188.986
			c0,1.156-0.937,2.091-2.09,2.091c-1.154,0-2.089-0.935-2.089-2.091c0-1.151,0.935-2.086,2.089-2.086
			C159.693,186.9,160.63,187.835,160.63,188.986z"/>
		<circle clip-path="url(#SVGID_2_)" fill-rule="evenodd" clip-rule="evenodd" fill="#F47526" cx="158.472" cy="179.49" r="1.619"/>
		<circle clip-path="url(#SVGID_2_)" fill-rule="evenodd" clip-rule="evenodd" fill="#F47526" cx="160.764" cy="176.739" r="2.44"/>
		<path clip-path="url(#SVGID_2_)" fill-rule="evenodd" clip-rule="evenodd" fill="#F47526" d="M178.247,172.735
			c0,2.274-1.847,4.12-4.123,4.12c-2.277,0-4.12-1.846-4.12-4.12c0-2.278,1.843-4.122,4.12-4.122
			C176.4,168.613,178.247,170.457,178.247,172.735z"/>
		
			<circle clip-path="url(#SVGID_2_)" fill-rule="evenodd" clip-rule="evenodd" fill="#F47526" cx="166.666" cy="165.663" r="0.981"/>
		<path clip-path="url(#SVGID_2_)" fill-rule="evenodd" clip-rule="evenodd" fill="#F47526" d="M176.48,180.63
			c0,1.222-0.989,2.207-2.209,2.207s-2.206-0.985-2.206-2.207c0-1.22,0.986-2.208,2.206-2.208S176.48,179.41,176.48,180.63z"/>
		
			<circle clip-path="url(#SVGID_2_)" fill-rule="evenodd" clip-rule="evenodd" fill="#F47526" cx="170.738" cy="184.102" r="1.719"/>
		
			<circle clip-path="url(#SVGID_2_)" fill-rule="evenodd" clip-rule="evenodd" fill="#F47526" cx="168.972" cy="190.837" r="2.699"/>
		
			<circle clip-path="url(#SVGID_2_)" fill-rule="evenodd" clip-rule="evenodd" fill="#F47526" cx="173.781" cy="189.464" r="2.699"/>
		
			<circle clip-path="url(#SVGID_2_)" fill-rule="evenodd" clip-rule="evenodd" fill="#F47526" cx="175.352" cy="186.998" r="2.895"/>
		
			<circle clip-path="url(#SVGID_2_)" fill-rule="evenodd" clip-rule="evenodd" fill="#F47526" cx="177.094" cy="183.454" r="2.822"/>
		
			<circle clip-path="url(#SVGID_2_)" fill-rule="evenodd" clip-rule="evenodd" fill="#F47526" cx="177.804" cy="189.464" r="1.324"/>
		<path opacity="0.88" clip-path="url(#SVGID_2_)" fill-rule="evenodd" clip-rule="evenodd" fill="#F47526" d="M146.594,166.622
			c0,1.421-1.151,2.572-2.576,2.572c-1.422,0-2.575-1.151-2.575-2.572c0-1.427,1.153-2.579,2.575-2.579
			C145.442,164.043,146.594,165.195,146.594,166.622z"/>
		<path clip-path="url(#SVGID_2_)" fill-rule="evenodd" clip-rule="evenodd" fill="#F47526" d="M135.651,165.204
			c0,1.587-1.285,2.873-2.87,2.873s-2.87-1.286-2.87-2.873c0-1.583,1.285-2.867,2.87-2.867S135.651,163.621,135.651,165.204z"/>
		
			<circle opacity="0.87" clip-path="url(#SVGID_2_)" fill-rule="evenodd" clip-rule="evenodd" fill="#F47526" cx="165.651" cy="57.445" r="6.806"/>
		<circle clip-path="url(#SVGID_2_)" fill-rule="evenodd" clip-rule="evenodd" fill="#F47526" cx="173.451" cy="51.429" r="3.644"/>
		<circle clip-path="url(#SVGID_2_)" fill-rule="evenodd" clip-rule="evenodd" fill="#F47526" cx="171.229" cy="41.361" r="5.251"/>
		
			<ellipse clip-path="url(#SVGID_2_)" fill-rule="evenodd" clip-rule="evenodd" fill="#F47526" cx="170.345" cy="28.455" rx="1.326" ry="0"/>
		<circle clip-path="url(#SVGID_2_)" fill-rule="evenodd" clip-rule="evenodd" fill="#F47526" cx="163.295" cy="40.561" r="4.451"/>
		
			<circle clip-path="url(#SVGID_2_)" fill-rule="evenodd" clip-rule="evenodd" fill="#F47526" cx="178.111" cy="102.999" r="1.017"/>
		<path clip-path="url(#SVGID_2_)" fill-rule="evenodd" clip-rule="evenodd" fill="#F47526" d="M106.73,49.014
			c0,1.883-1.511,3.411-3.375,3.411c-1.869,0-3.381-1.528-3.381-3.411c0-1.885,1.512-3.412,3.381-3.412
			C105.22,45.602,106.73,47.129,106.73,49.014z"/>
		
			<ellipse clip-path="url(#SVGID_2_)" fill-rule="evenodd" clip-rule="evenodd" fill="#F47526" cx="121.63" cy="28.704" rx="4.55" ry="2.637"/>
		<circle clip-path="url(#SVGID_2_)" fill-rule="evenodd" clip-rule="evenodd" fill="#F47526" cx="130.508" cy="19.797" r="2.737"/>
		<path opacity="0.78" clip-path="url(#SVGID_2_)" fill-rule="evenodd" clip-rule="evenodd" fill="#F47526" d="M106.512,44.683
			c0,1.193-0.965,2.16-2.161,2.16c-1.193,0-2.16-0.967-2.16-2.16c0-1.192,0.967-2.16,2.16-2.16
			C105.547,42.523,106.512,43.491,106.512,44.683z"/>
		<circle clip-path="url(#SVGID_2_)" fill-rule="evenodd" clip-rule="evenodd" fill="#F47526" cx="111.359" cy="144.59" r="3.876"/>
		<circle clip-path="url(#SVGID_2_)" fill-rule="evenodd" clip-rule="evenodd" fill="#F47526" cx="67.182" cy="161.503" r="4.736"/>
		<path clip-path="url(#SVGID_2_)" fill-rule="evenodd" clip-rule="evenodd" fill="#F68A44" d="M42.777,139.494
			c0,1.02-0.83,1.847-1.85,1.847c-1.022,0-1.851-0.827-1.851-1.847c0-1.023,0.829-1.853,1.851-1.853
			C41.947,137.642,42.777,138.471,42.777,139.494z"/>
		<circle clip-path="url(#SVGID_2_)" fill-rule="evenodd" clip-rule="evenodd" fill="#F68A44" cx="34.048" cy="141.769" r="1.056"/>
		<circle clip-path="url(#SVGID_2_)" fill-rule="evenodd" clip-rule="evenodd" fill="#F68A44" cx="29.151" cy="145.459" r="2.074"/>
		<circle clip-path="url(#SVGID_2_)" fill-rule="evenodd" clip-rule="evenodd" fill="#F68A44" cx="31.003" cy="143.431" r="2.185"/>
		<circle clip-path="url(#SVGID_2_)" fill-rule="evenodd" clip-rule="evenodd" fill="#F68A44" cx="24.407" cy="145.023" r="1.754"/>
		<circle clip-path="url(#SVGID_2_)" fill-rule="evenodd" clip-rule="evenodd" fill="#F68A44" cx="30.414" cy="141.38" r="1.595"/>
		<circle clip-path="url(#SVGID_2_)" fill-rule="evenodd" clip-rule="evenodd" fill="#F68A44" cx="40.598" cy="138.17" r="2.698"/>
		<circle clip-path="url(#SVGID_2_)" fill-rule="evenodd" clip-rule="evenodd" fill="#F68A44" cx="42.806" cy="133.851" r="1.375"/>
		<circle clip-path="url(#SVGID_2_)" fill-rule="evenodd" clip-rule="evenodd" fill="#F68A44" cx="40.647" cy="137.985" r="3.729"/>
		<circle clip-path="url(#SVGID_2_)" fill-rule="evenodd" clip-rule="evenodd" fill="#F68A44" cx="48.449" cy="150.321" r="1.513"/>
		<path clip-path="url(#SVGID_2_)" fill-rule="evenodd" clip-rule="evenodd" fill="#F68A44" d="M46.936,146.161
			c0,0.762-0.618,1.379-1.38,1.379c-0.759,0-1.375-0.617-1.375-1.379c0-0.76,0.616-1.376,1.375-1.376
			C46.318,144.785,46.936,145.401,46.936,146.161z"/>
		<circle clip-path="url(#SVGID_2_)" fill-rule="evenodd" clip-rule="evenodd" fill="#F68A44" cx="47.12" cy="142.485" r="1.772"/>
		<circle clip-path="url(#SVGID_2_)" fill-rule="evenodd" clip-rule="evenodd" fill="#F68A44" cx="46.443" cy="140.051" r="2.067"/>
		<circle clip-path="url(#SVGID_2_)" fill-rule="evenodd" clip-rule="evenodd" fill="#F68A44" cx="74.504" cy="160.09" r="2.084"/>
		
			<circle clip-path="url(#SVGID_2_)" fill-rule="evenodd" clip-rule="evenodd" fill="#F68A44" cx="110.783" cy="133.798" r="3.299"/>
		<circle clip-path="url(#SVGID_2_)" fill-rule="evenodd" clip-rule="evenodd" fill="#F68A44" cx="86.861" cy="125.876" r="2.048"/>
		
			<circle clip-path="url(#SVGID_2_)" fill-rule="evenodd" clip-rule="evenodd" fill="#F68A44" cx="122.517" cy="122.911" r="2.586"/>
		
			<circle clip-path="url(#SVGID_2_)" fill-rule="evenodd" clip-rule="evenodd" fill="#F68A44" cx="125.095" cy="112.611" r="1.808"/>
	</g>
	<circle fill-rule="evenodd" clip-rule="evenodd" fill="#F47526" cx="62.444" cy="154.729" r="3.69"/>
	<circle fill-rule="evenodd" clip-rule="evenodd" fill="#F47526" cx="70.293" cy="160.117" r="2.997"/>
	<circle fill-rule="evenodd" clip-rule="evenodd" fill="#F47526" cx="65.792" cy="162.489" r="1.321"/>
	<circle fill-rule="evenodd" clip-rule="evenodd" fill="#F47526" cx="72.421" cy="169.36" r="2.126"/>
	<path fill-rule="evenodd" clip-rule="evenodd" fill="#F47526" d="M55.074,154.32c0,1.812-1.468,3.283-3.284,3.283
		c-1.812,0-3.28-1.471-3.28-3.283c0-1.812,1.468-3.281,3.28-3.281C53.606,151.039,55.074,152.509,55.074,154.32z"/>
	<circle fill-rule="evenodd" clip-rule="evenodd" fill="#F47526" cx="48.893" cy="147.767" r="1.957"/>
	<circle opacity="0.9" fill-rule="evenodd" clip-rule="evenodd" fill="#F47526" cx="42.776" cy="141.243" r="2.572"/>
	<circle fill-rule="evenodd" clip-rule="evenodd" fill="#F47526" cx="27.077" cy="144.095" r="1.741"/>
	<path fill-rule="evenodd" clip-rule="evenodd" fill="#F47526" d="M103.51,136.169c0,1.789-1.45,3.242-3.24,3.242
		c-1.788,0-3.238-1.453-3.238-3.242c0-1.787,1.45-3.239,3.238-3.239C102.06,132.93,103.51,134.382,103.51,136.169z"/>
	<circle fill-rule="evenodd" clip-rule="evenodd" fill="#F47526" cx="88.197" cy="144.267" r="3.975"/>
	<circle fill-rule="evenodd" clip-rule="evenodd" fill="#F47526" cx="106.061" cy="126.259" r="2.896"/>
	<path fill-rule="evenodd" clip-rule="evenodd" fill="#F47526" d="M88.863,72.316c0,0.751-0.61,1.361-1.362,1.361
		c-0.753,0-1.363-0.61-1.363-1.361c0-0.756,0.61-1.363,1.363-1.363C88.253,70.953,88.863,71.561,88.863,72.316z"/>
	<circle fill-rule="evenodd" clip-rule="evenodd" fill="#F47526" cx="104.109" cy="46.425" r="0.944"/>
	<circle fill-rule="evenodd" clip-rule="evenodd" fill="#F47526" cx="102.678" cy="41.996" r="0.487"/>
	<circle fill-rule="evenodd" clip-rule="evenodd" fill="#F47526" cx="106.732" cy="51.117" r="1.193"/>
	<path fill-rule="evenodd" clip-rule="evenodd" fill="#F47526" d="M107.483,57.495c0,0.539-0.435,0.974-0.972,0.974
		c-0.538,0-0.973-0.436-0.973-0.974c0-0.534,0.435-0.969,0.973-0.969C107.049,56.526,107.483,56.961,107.483,57.495z"/>
	<circle fill-rule="evenodd" clip-rule="evenodd" fill="#F47526" cx="101.073" cy="63.032" r="2.682"/>
	<circle fill-rule="evenodd" clip-rule="evenodd" fill="#F47526" cx="101.325" cy="68.818" r="1.35"/>
	<path fill-rule="evenodd" clip-rule="evenodd" fill="#F47526" d="M117.08,47.701c0,1.229-0.996,2.224-2.221,2.224
		c-1.228,0-2.225-0.994-2.225-2.224c0-1.225,0.997-2.219,2.225-2.219C116.084,45.482,117.08,46.477,117.08,47.701z"/>
	<circle fill-rule="evenodd" clip-rule="evenodd" fill="#F47526" cx="117.052" cy="26.933" r="2.355"/>
	<circle opacity="0.91" fill-rule="evenodd" clip-rule="evenodd" fill="#F47526" cx="116.906" cy="19.573" r="1.472"/>
	<circle fill-rule="evenodd" clip-rule="evenodd" fill="#F47526" cx="116.35" cy="16.328" r="0.73"/>
	<path fill-rule="evenodd" clip-rule="evenodd" fill="#F47526" d="M114.089,58.207c0,1.418-1.148,2.569-2.568,2.569
		c-1.415,0-2.564-1.15-2.564-2.569c0-1.415,1.149-2.565,2.564-2.565C112.94,55.642,114.089,56.792,114.089,58.207z"/>
	<circle fill-rule="evenodd" clip-rule="evenodd" fill="#F47526" cx="127.771" cy="28.525" r="1.59"/>
	<circle opacity="0.81" fill-rule="evenodd" clip-rule="evenodd" fill="#F47526" cx="130.273" cy="22.077" r="2.503"/>
	<ellipse fill-rule="evenodd" clip-rule="evenodd" fill="#F47526" cx="103.392" cy="44.685" rx="0.717" ry="0.798"/>
	<ellipse fill-rule="evenodd" clip-rule="evenodd" fill="#F47526" cx="105.892" cy="49.104" rx="0.838" ry="0.821"/>
	<path fill-rule="evenodd" clip-rule="evenodd" fill="#F47526" d="M105.054,48.274c0-0.459-0.374-0.831-0.829-0.831
		c-0.46,0-0.834,0.372-0.834,0.831c0,0.458,0.374,0.83,0.834,0.83C104.68,49.104,105.054,48.732,105.054,48.274z"/>
	<circle fill-rule="evenodd" clip-rule="evenodd" fill="#F47526" cx="117.514" cy="22.17" r="1.894"/>
	<circle fill-rule="evenodd" clip-rule="evenodd" fill="#F47526" cx="131.991" cy="34.625" r="0.848"/>
	<circle opacity="0.88" fill-rule="evenodd" clip-rule="evenodd" fill="#F47526" cx="118.67" cy="67.142" r="3.811"/>
	<circle fill-rule="evenodd" clip-rule="evenodd" fill="#F47526" cx="106.011" cy="143.385" r="5.742"/>
	<circle fill-rule="evenodd" clip-rule="evenodd" fill="#F47526" cx="121.616" cy="169.001" r="1.031"/>
	<path fill-rule="evenodd" clip-rule="evenodd" fill="#F47526" d="M149.588,166.812c0,0.973-0.79,1.763-1.764,1.763
		c-0.978,0-1.767-0.79-1.767-1.763c0-0.979,0.789-1.77,1.767-1.77C148.798,165.042,149.588,165.833,149.588,166.812z"/>
	<path fill-rule="evenodd" clip-rule="evenodd" fill="#F47526" d="M156.396,166.24c0,0.66-0.535,1.192-1.194,1.192
		c-0.661,0-1.196-0.532-1.196-1.192c0-0.661,0.535-1.198,1.196-1.198C155.86,165.042,156.396,165.579,156.396,166.24z"/>
	<path fill-rule="evenodd" clip-rule="evenodd" fill="#F47526" d="M139.269,166.821c0,1.66-1.348,3.009-3.012,3.009
		c-1.663,0-3.012-1.349-3.012-3.009c0-1.665,1.349-3.011,3.012-3.011C137.921,163.811,139.269,165.156,139.269,166.821z"/>
	<path fill-rule="evenodd" clip-rule="evenodd" fill="#F47526" d="M176.486,168.271c0,0.801-0.649,1.451-1.449,1.451
		c-0.804,0-1.451-0.65-1.451-1.451c0-0.802,0.647-1.45,1.451-1.45C175.837,166.821,176.486,167.47,176.486,168.271z"/>
	<circle fill-rule="evenodd" clip-rule="evenodd" fill="#F47526" cx="185.143" cy="184.825" r="2.282"/>
	<circle fill-rule="evenodd" clip-rule="evenodd" fill="#F47526" cx="171.08" cy="189.349" r="0.945"/>
	<circle fill-rule="evenodd" clip-rule="evenodd" fill="#F47526" cx="141.992" cy="184.384" r="2.723"/>
	<circle fill-rule="evenodd" clip-rule="evenodd" fill="#F47526" cx="126.387" cy="178.627" r="2.857"/>
	<circle fill-rule="evenodd" clip-rule="evenodd" fill="#F47526" cx="92.394" cy="178.349" r="4.195"/>
	<path opacity="0.82" fill-rule="evenodd" clip-rule="evenodd" fill="#F47526" d="M101.448,186.085c0,1.953-1.585,3.54-3.541,3.54
		c-1.955,0-3.541-1.587-3.541-3.54c0-1.958,1.586-3.541,3.541-3.541C99.863,182.544,101.448,184.127,101.448,186.085z"/>
	<path opacity="0.81" fill-rule="evenodd" clip-rule="evenodd" fill="#F47526" d="M120.388,185.221c0,1.729-1.4,3.13-3.128,3.13
		c-1.727,0-3.127-1.401-3.127-3.13c0-1.726,1.4-3.128,3.127-3.128C118.987,182.093,120.388,183.495,120.388,185.221z"/>
	<circle fill-rule="evenodd" clip-rule="evenodd" fill="#F47526" cx="126.032" cy="182.103" r="2.503"/>
	<circle fill-rule="evenodd" clip-rule="evenodd" fill="#F47526" cx="86.44" cy="175.634" r="2.217"/>
	<path fill-rule="evenodd" clip-rule="evenodd" fill="#F47526" d="M116.412,150.096c0,1.288-1.041,2.333-2.33,2.333
		c-1.287,0-2.329-1.045-2.329-2.333c0-1.285,1.042-2.329,2.329-2.329C115.371,147.767,116.412,148.811,116.412,150.096z"/>
	<circle fill-rule="evenodd" clip-rule="evenodd" fill="#F47526" cx="133.829" cy="157.555" r="0.583"/>
	<circle fill-rule="evenodd" clip-rule="evenodd" fill="#F47526" cx="118.256" cy="153.847" r="2.329"/>
	<circle fill-rule="evenodd" clip-rule="evenodd" fill="#F47526" cx="165.635" cy="168.448" r="2.209"/>
	<circle fill-rule="evenodd" clip-rule="evenodd" fill="#F47526" cx="170.082" cy="178.904" r="2.238"/>
	<circle fill-rule="evenodd" clip-rule="evenodd" fill="#F47526" cx="157.317" cy="187.918" r="3.312"/>
	<circle fill-rule="evenodd" clip-rule="evenodd" fill="#F47526" cx="188.676" cy="186.077" r="1.251"/>
	<circle fill-rule="evenodd" clip-rule="evenodd" fill="#F47526" cx="185.904" cy="180.53" r="0.932"/>
	<path fill-rule="evenodd" clip-rule="evenodd" fill="#F47526" d="M179.128,168.41c0,0.244-0.195,0.441-0.441,0.441
		c-0.241,0-0.439-0.197-0.439-0.441c0-0.243,0.198-0.44,0.439-0.44C178.933,167.97,179.128,168.167,179.128,168.41z"/>
	<circle fill-rule="evenodd" clip-rule="evenodd" fill="#F47526" cx="180.612" cy="188.812" r="1.484"/>
	<circle fill-rule="evenodd" clip-rule="evenodd" fill="#F47526" cx="185.903" cy="187.919" r="0.919"/>
	<path fill-rule="evenodd" clip-rule="evenodd" fill="#F47526" d="M176.486,189.35c0,0.802-0.649,1.453-1.449,1.453
		c-0.804,0-1.451-0.651-1.451-1.453c0-0.803,0.647-1.451,1.451-1.451C175.837,187.898,176.486,188.547,176.486,189.35z"/>
	<circle fill-rule="evenodd" clip-rule="evenodd" fill="#F47526" cx="162.046" cy="191.468" r="1.399"/>
	<circle fill-rule="evenodd" clip-rule="evenodd" fill="#F47526" cx="150.471" cy="189.349" r="2.12"/>
	<path fill-rule="evenodd" clip-rule="evenodd" fill="#F47526" d="M145.465,188.848c0,0.957-0.775,1.735-1.736,1.735
		s-1.738-0.778-1.738-1.735c0-0.962,0.777-1.739,1.738-1.739S145.465,187.886,145.465,188.848z"/>
	<path fill-rule="evenodd" clip-rule="evenodd" fill="#F47526" d="M139.86,184.546c0,0.992-0.807,1.799-1.8,1.799
		c-0.996,0-1.804-0.807-1.804-1.799c0-0.998,0.808-1.806,1.804-1.806C139.054,182.74,139.86,183.548,139.86,184.546z"/>
	<circle fill-rule="evenodd" clip-rule="evenodd" fill="#F47526" cx="162.028" cy="146.7" r="1.398"/>
	<circle opacity="0.87" fill-rule="evenodd" clip-rule="evenodd" fill="#F47526" cx="153.648" cy="149.402" r="1.636"/>
	<path fill-rule="evenodd" clip-rule="evenodd" fill="#F47526" d="M149.588,150.007c0,0.977-0.79,1.769-1.764,1.769
		c-0.978,0-1.767-0.792-1.767-1.769c0-0.974,0.789-1.764,1.767-1.764C148.798,148.243,149.588,149.033,149.588,150.007z"/>
	<circle fill-rule="evenodd" clip-rule="evenodd" fill="#F47526" cx="141.499" cy="151.634" r="2.23"/>
	<path fill-rule="evenodd" clip-rule="evenodd" fill="#F47526" d="M136.257,152.37c0,0.428-0.347,0.775-0.772,0.775
		c-0.431,0-0.775-0.348-0.775-0.775s0.345-0.774,0.775-0.774C135.91,151.596,136.257,151.942,136.257,152.37z"/>
	<circle fill-rule="evenodd" clip-rule="evenodd" fill="#F47526" cx="131.716" cy="156.766" r="0.838"/>
	<path fill-rule="evenodd" clip-rule="evenodd" fill="#F47526" d="M168.511,132.017c0,0.789-0.644,1.437-1.438,1.437
		s-1.438-0.647-1.438-1.437c0-0.796,0.644-1.441,1.438-1.441S168.511,131.221,168.511,132.017z"/>
	<circle fill-rule="evenodd" clip-rule="evenodd" fill="#F47526" cx="155.482" cy="130.497" r="1.835"/>
	<circle fill-rule="evenodd" clip-rule="evenodd" fill="#F47526" cx="158.532" cy="135.471" r="1.215"/>
	<path fill-rule="evenodd" clip-rule="evenodd" fill="#F47526" d="M157.317,138.711c0,0.592-0.477,1.072-1.069,1.072
		s-1.071-0.48-1.071-1.072c0-0.588,0.479-1.069,1.071-1.069S157.317,138.123,157.317,138.711z"/>
	<path opacity="0.87" fill-rule="evenodd" clip-rule="evenodd" fill="#F47526" d="M166.941,147.501c0,0.72-0.584,1.304-1.306,1.304
		c-0.723,0-1.311-0.584-1.311-1.304c0-0.724,0.588-1.31,1.311-1.31C166.357,146.191,166.941,146.777,166.941,147.501z"/>
	<path fill-rule="evenodd" clip-rule="evenodd" fill="#F47526" d="M160.63,146.073c0,0.918-0.741,1.659-1.655,1.659
		c-0.916,0-1.657-0.741-1.657-1.659c0-0.913,0.741-1.653,1.657-1.653C159.889,144.42,160.63,145.16,160.63,146.073z"/>
	<path fill-rule="evenodd" clip-rule="evenodd" fill="#F47526" d="M155.483,144.785c0,0.772-0.628,1.4-1.404,1.4
		c-0.771,0-1.4-0.628-1.4-1.4c0-0.773,0.63-1.4,1.4-1.4C154.855,143.385,155.483,144.012,155.483,144.785z"/>
	<circle fill-rule="evenodd" clip-rule="evenodd" fill="#F47526" cx="161.673" cy="122.625" r="1.205"/>
	<circle fill-rule="evenodd" clip-rule="evenodd" fill="#F47526" cx="157.01" cy="120.326" r="1.527"/>
	<circle fill-rule="evenodd" clip-rule="evenodd" fill="#F47526" cx="153.549" cy="126.224" r="1.537"/>
	<circle fill-rule="evenodd" clip-rule="evenodd" fill="#F47526" cx="148.852" cy="126.307" r="1.619"/>
	<path fill-rule="evenodd" clip-rule="evenodd" fill="#F47526" d="M166.971,109.015c0,0.775-0.628,1.404-1.404,1.404
		c-0.772,0-1.403-0.629-1.403-1.404c0-0.776,0.631-1.404,1.403-1.404C166.343,107.61,166.971,108.238,166.971,109.015z"/>
	<path fill-rule="evenodd" clip-rule="evenodd" fill="#F47526" d="M160.091,114.222c0,1.529-1.242,2.771-2.773,2.771
		c-1.53,0-2.771-1.241-2.771-2.771c0-1.533,1.241-2.774,2.771-2.774C158.849,111.447,160.091,112.688,160.091,114.222z"/>
	<circle fill-rule="evenodd" clip-rule="evenodd" fill="#F47526" cx="129.904" cy="102.059" r="1.811"/>
	<circle fill-rule="evenodd" clip-rule="evenodd" fill="#F47526" cx="123.235" cy="119.642" r="2.65"/>
	<path fill-rule="evenodd" clip-rule="evenodd" fill="#F47526" d="M148.851,82.138c0,2.032-1.645,3.677-3.674,3.677
		c-2.034,0-3.677-1.645-3.677-3.677c0-2.03,1.643-3.677,3.677-3.677C147.206,78.461,148.851,80.107,148.851,82.138z"/>
	<circle fill-rule="evenodd" clip-rule="evenodd" fill="#F47526" cx="129.197" cy="80.741" r="4.048"/>
	<circle fill-rule="evenodd" clip-rule="evenodd" fill="#F47526" cx="141.138" cy="77.666" r="2.59"/>
	<circle fill-rule="evenodd" clip-rule="evenodd" fill="#F47526" cx="119.422" cy="80.007" r="2.342"/>
	<path fill-rule="evenodd" clip-rule="evenodd" fill="#F47526" d="M112.635,78.025c0,1.63-1.32,2.952-2.948,2.952
		c-1.633,0-2.956-1.322-2.956-2.952c0-1.629,1.323-2.951,2.956-2.951C111.314,75.074,112.635,76.396,112.635,78.025z"/>
	<circle fill-rule="evenodd" clip-rule="evenodd" fill="#F47526" cx="169.025" cy="35.02" r="0.453"/>
	<circle fill-rule="evenodd" clip-rule="evenodd" fill="#F47526" cx="168.612" cy="41.427" r="0.866"/>
	<circle fill-rule="evenodd" clip-rule="evenodd" fill="#F47526" cx="174.465" cy="51.959" r="1.328"/>
	<circle fill-rule="evenodd" clip-rule="evenodd" fill="#F47526" cx="165.955" cy="59.289" r="1.792"/>
	<circle fill-rule="evenodd" clip-rule="evenodd" fill="#F47526" cx="168.511" cy="56.298" r="1.54"/>
	<circle fill-rule="evenodd" clip-rule="evenodd" fill="#F47526" cx="166.85" cy="51.527" r="0.896"/>
	<circle fill-rule="evenodd" clip-rule="evenodd" fill="#F47526" cx="157.479" cy="64.115" r="1.996"/>
	<circle fill-rule="evenodd" clip-rule="evenodd" fill="#F47526" cx="155.375" cy="68.218" r="2.105"/>
	<circle fill-rule="evenodd" clip-rule="evenodd" fill="#F47526" cx="169.848" cy="76.409" r="1.337"/>
	<circle fill-rule="evenodd" clip-rule="evenodd" fill="#F47526" cx="162.127" cy="82.778" r="2.036"/>
	<circle fill-rule="evenodd" clip-rule="evenodd" fill="#F47526" cx="169.017" cy="83.145" r="2.167"/>
	<circle fill-rule="evenodd" clip-rule="evenodd" fill="#F47526" cx="170.91" cy="78.986" r="1.201"/>
	<circle fill-rule="evenodd" clip-rule="evenodd" fill="#F47526" cx="174.125" cy="76.704" r="1.668"/>
	<circle fill-rule="evenodd" clip-rule="evenodd" fill="#F47526" cx="157.011" cy="91.379" r="2.465"/>
	<path fill-rule="evenodd" clip-rule="evenodd" fill="#F47526" d="M153.975,101.446c0,1.415-1.147,2.562-2.558,2.562
		c-1.418,0-2.566-1.147-2.566-2.562s1.148-2.56,2.566-2.56C152.827,98.887,153.975,100.031,153.975,101.446z"/>
	<circle fill-rule="evenodd" clip-rule="evenodd" fill="#F47526" cx="138.401" cy="59.115" r="1.621"/>
	<circle fill-rule="evenodd" clip-rule="evenodd" fill="#F47526" cx="143.55" cy="60.621" r="2.412"/>
	<circle fill-rule="evenodd" clip-rule="evenodd" fill="#F47526" cx="140.998" cy="62.055" r="0.976"/>
	<circle fill-rule="evenodd" clip-rule="evenodd" fill="#F47526" cx="139.698" cy="62.035" r="1.297"/>
	<circle fill-rule="evenodd" clip-rule="evenodd" fill="#F47526" cx="137.66" cy="58.659" r="2.362"/>
	<circle fill-rule="evenodd" clip-rule="evenodd" fill="#F47526" cx="142.014" cy="38.259" r="1.019"/>
	<circle fill-rule="evenodd" clip-rule="evenodd" fill="#F47526" cx="146.133" cy="31.341" r="1.227"/>
	<circle fill-rule="evenodd" clip-rule="evenodd" fill="#F47526" cx="144.105" cy="33.638" r="1.072"/>
	<circle fill-rule="evenodd" clip-rule="evenodd" fill="#F47526" cx="147.864" cy="15.895" r="0.434"/>
	<path fill-rule="evenodd" clip-rule="evenodd" fill="#F47526" d="M151.417,17.453c0,0.861-0.701,1.557-1.56,1.557
		c-0.861,0-1.56-0.696-1.56-1.557s0.698-1.558,1.56-1.558C150.716,15.895,151.417,16.592,151.417,17.453z"/>
	<circle fill-rule="evenodd" clip-rule="evenodd" fill="#F47526" cx="148.462" cy="19.646" r="0.635"/>
	<circle fill-rule="evenodd" clip-rule="evenodd" fill="#F47526" cx="144.363" cy="22.888" r="0.814"/>
	<circle fill-rule="evenodd" clip-rule="evenodd" fill="#F47526" cx="149.491" cy="13.633" r="0.641"/>
	<circle fill-rule="evenodd" clip-rule="evenodd" fill="#F47526" cx="135.282" cy="12.775" r="0.858"/>
	<path fill-rule="evenodd" clip-rule="evenodd" fill="#F47526" d="M133.245,26.066c0,0.819-0.662,1.485-1.484,1.485
		c-0.82,0-1.486-0.667-1.486-1.485c0-0.823,0.666-1.488,1.486-1.488C132.583,24.579,133.245,25.243,133.245,26.066z"/>
	<circle fill-rule="evenodd" clip-rule="evenodd" fill="#F47526" cx="124.734" cy="48.815" r="1.447"/>
	<circle fill-rule="evenodd" clip-rule="evenodd" fill="#F47526" cx="121.661" cy="47.941" r="1.517"/>
	<circle fill-rule="evenodd" clip-rule="evenodd" fill="#F47526" cx="115.802" cy="45.602" r="1.713"/>
	<circle fill-rule="evenodd" clip-rule="evenodd" fill="#F47526" cx="120.02" cy="34.209" r="1.642"/>
	<circle opacity="0.87" fill-rule="evenodd" clip-rule="evenodd" fill="#F47526" cx="115.075" cy="32.553" r="2.44"/>
	<circle fill-rule="evenodd" clip-rule="evenodd" fill="#F47526" cx="119.588" cy="30.597" r="2.073"/>
	<circle fill-rule="evenodd" clip-rule="evenodd" fill="#F47526" cx="85.621" cy="71.722" r="1.398"/>
	<circle fill-rule="evenodd" clip-rule="evenodd" fill="#F47526" cx="86.431" cy="79.284" r="1.618"/>
	<circle fill-rule="evenodd" clip-rule="evenodd" fill="#F47526" cx="87.335" cy="88.927" r="3.113"/>
	<circle fill-rule="evenodd" clip-rule="evenodd" fill="#F47526" cx="93.364" cy="110.526" r="2.916"/>
	<circle fill-rule="evenodd" clip-rule="evenodd" fill="#F47526" cx="71.158" cy="133.821" r="2.132"/>
	<circle fill-rule="evenodd" clip-rule="evenodd" fill="#F47526" cx="131.715" cy="145.303" r="1.505"/>
	<circle fill-rule="evenodd" clip-rule="evenodd" fill="#F47526" cx="132.353" cy="155.34" r="1.475"/>
	<circle fill-rule="evenodd" clip-rule="evenodd" fill="#F47526" cx="130.061" cy="153.965" r="0.817"/>
	<circle fill-rule="evenodd" clip-rule="evenodd" fill="#F47526" cx="120.747" cy="154.008" r="2.489"/>
	<circle fill-rule="evenodd" clip-rule="evenodd" fill="#F47526" cx="163.399" cy="133.05" r="1.353"/>
	<path fill-rule="evenodd" clip-rule="evenodd" fill="#F47526" d="M165.575,131.348c0,0.391-0.316,0.708-0.705,0.708
		c-0.39,0-0.707-0.317-0.707-0.708c0-0.388,0.317-0.706,0.707-0.706C165.259,130.642,165.575,130.96,165.575,131.348z"/>
	<path opacity="0.91" fill-rule="evenodd" clip-rule="evenodd" fill="#F47526" d="M165.914,122.291c0,0.644-0.519,1.164-1.162,1.164
		s-1.163-0.521-1.163-1.164c0-0.638,0.52-1.162,1.163-1.162S165.914,121.653,165.914,122.291z"/>
	<circle fill-rule="evenodd" clip-rule="evenodd" fill="#F47526" cx="163.794" cy="120.011" r="0.369"/>
	<circle fill-rule="evenodd" clip-rule="evenodd" fill="#F47526" cx="161.672" cy="108.064" r="0.455"/>
	<path fill-rule="evenodd" clip-rule="evenodd" fill="#F47526" d="M158.533,109.661c0,0.63-0.512,1.141-1.143,1.141
		c-0.633,0-1.143-0.511-1.143-1.141c0-0.633,0.51-1.145,1.143-1.145C158.021,108.517,158.533,109.028,158.533,109.661z"/>
	<path fill-rule="evenodd" clip-rule="evenodd" fill="#F47526" d="M156.248,78.133c0,0.864-0.702,1.563-1.562,1.563
		c-0.866,0-1.567-0.699-1.567-1.563c0-0.863,0.701-1.562,1.567-1.562C155.546,76.571,156.248,77.27,156.248,78.133z"/>
	<circle fill-rule="evenodd" clip-rule="evenodd" fill="#F47526" cx="156.812" cy="74.042" r="1.726"/>
	<circle fill-rule="evenodd" clip-rule="evenodd" fill="#F47526" cx="175.321" cy="47.621" r="1.195"/>
	<circle fill-rule="evenodd" clip-rule="evenodd" fill="#F47526" cx="170.31" cy="36.937" r="0.601"/>
	<circle fill-rule="evenodd" clip-rule="evenodd" fill="#F47526" cx="130.479" cy="41.841" r="1.281"/>
	<path fill-rule="evenodd" clip-rule="evenodd" fill="#F47526" d="M136.78,15.604c0,0.408-0.331,0.74-0.741,0.74
		s-0.741-0.333-0.741-0.74c0-0.412,0.331-0.743,0.741-0.743S136.78,15.193,136.78,15.604z"/>
	<circle fill-rule="evenodd" clip-rule="evenodd" fill="#F47526" cx="135.448" cy="21.178" r="0.896"/>
	<circle fill-rule="evenodd" clip-rule="evenodd" fill="#F47526" cx="132.878" cy="17.215" r="0.886"/>
	<path fill-rule="evenodd" clip-rule="evenodd" fill="#F47526" d="M57.281,156.528c0,1.221-0.986,2.21-2.208,2.21
		c-1.219,0-2.208-0.989-2.208-2.21c0-1.217,0.989-2.208,2.208-2.208C56.295,154.32,57.281,155.312,57.281,156.528z"/>
	<path fill-rule="evenodd" clip-rule="evenodd" fill="#F47526" d="M59.749,133.285c0,0.682-0.552,1.236-1.234,1.236
		c-0.682,0-1.233-0.555-1.233-1.236c0-0.679,0.551-1.229,1.233-1.229C59.196,132.056,59.749,132.606,59.749,133.285z"/>
	<path fill-rule="evenodd" clip-rule="evenodd" fill="#F47526" d="M48.51,132.477c0,0.436-0.354,0.786-0.789,0.786
		c-0.433,0-0.785-0.351-0.785-0.786c0-0.438,0.353-0.789,0.785-0.789C48.156,131.688,48.51,132.039,48.51,132.477z"/>
	<circle fill-rule="evenodd" clip-rule="evenodd" fill="#F47526" cx="95.358" cy="141.858" r="3.186"/>
	<circle fill-rule="evenodd" clip-rule="evenodd" fill="#F47526" cx="76.588" cy="140.713" r="2.041"/>
	<circle fill-rule="evenodd" clip-rule="evenodd" fill="#F47526" cx="102.275" cy="154.432" r="2.005"/>
	<circle fill-rule="evenodd" clip-rule="evenodd" fill="#F47526" cx="97.814" cy="147.5" r="2.456"/>
	<circle fill-rule="evenodd" clip-rule="evenodd" fill="#F47526" cx="117.939" cy="120.326" r="1.527"/>
	<path fill-rule="evenodd" clip-rule="evenodd" fill="#F47526" d="M111.753,91.063c0,1.179-0.956,2.134-2.135,2.134
		s-2.135-0.955-2.135-2.134c0-1.182,0.956-2.137,2.135-2.137S111.753,89.882,111.753,91.063z"/>
	<circle fill-rule="evenodd" clip-rule="evenodd" fill="#F47526" cx="116.011" cy="87.743" r="1.929"/>
	<path fill-rule="evenodd" clip-rule="evenodd" fill="#F47526" d="M118.146,41.612c0,0.953-0.773,1.724-1.723,1.724
		c-0.954,0-1.726-0.771-1.726-1.724c0-0.952,0.771-1.724,1.726-1.724C117.372,39.888,118.146,40.66,118.146,41.612z"/>
	<path fill-rule="evenodd" clip-rule="evenodd" fill="#F47526" d="M165.953,86.414c0,0.334-0.269,0.604-0.602,0.604
		c-0.331,0-0.6-0.27-0.6-0.604c0-0.33,0.269-0.6,0.6-0.6C165.685,85.814,165.953,86.084,165.953,86.414z"/>
	<circle fill-rule="evenodd" clip-rule="evenodd" fill="#F47526" cx="163.439" cy="87.728" r="1.312"/>
	<circle fill-rule="evenodd" clip-rule="evenodd" fill="#F47526" cx="175.675" cy="79.341" r="0.356"/>
	<circle fill-rule="evenodd" clip-rule="evenodd" fill="#F47526" cx="177.439" cy="76.089" r="0.322"/>
	<circle fill-rule="evenodd" clip-rule="evenodd" fill="#F47526" cx="177.44" cy="73.441" r="0.323"/>
	<circle fill-rule="evenodd" clip-rule="evenodd" fill="#F47526" cx="177.841" cy="49.539" r="0.724"/>
	<ellipse fill-rule="evenodd" clip-rule="evenodd" fill="#F47526" cx="177.64" cy="46.425" rx="0.201" ry="0.001"/>
	<circle fill-rule="evenodd" clip-rule="evenodd" fill="#F47526" cx="125.101" cy="60.473" r="1.814"/>
	<circle fill-rule="evenodd" clip-rule="evenodd" fill="#F47526" cx="119.931" cy="62.811" r="0.523"/>
	<circle fill-rule="evenodd" clip-rule="evenodd" fill="#F47526" cx="40.926" cy="137.321" r="1.851"/>
	<circle fill-rule="evenodd" clip-rule="evenodd" fill="#F47526" cx="44.312" cy="135.357" r="1.535"/>
	<circle fill-rule="evenodd" clip-rule="evenodd" fill="#F47526" cx="37.309" cy="137.72" r="1.766"/>
	<circle fill-rule="evenodd" clip-rule="evenodd" fill="#F47526" cx="35.151" cy="143.929" r="2.158"/>
	<circle fill-rule="evenodd" clip-rule="evenodd" fill="#F47526" cx="29.912" cy="143.404" r="1.223"/>
	<path fill-rule="evenodd" clip-rule="evenodd" fill="#F47526" d="M45.348,150.093c0,0.711-0.576,1.287-1.286,1.287
		s-1.286-0.576-1.286-1.287c0-0.708,0.576-1.288,1.286-1.288S45.348,149.385,45.348,150.093z"/>
</g>
</svg>
