<?xml version="1.0" encoding="utf-8"?>
<!-- Generator: Adobe Illustrator 18.1.1, SVG Export Plug-In . SVG Version: 6.00 Build 0)  -->
<svg version="1.1" id="Layer_1" xmlns="http://www.w3.org/2000/svg" xmlns:xlink="http://www.w3.org/1999/xlink" x="0px" y="0px"
	 viewBox="-9 -85 230 230" enable-background="new -9 -85 230 230" xml:space="preserve">
<g>
	<circle fill="#FFFFFF" cx="106" cy="30" r="115"/>
	<path fill="#F37526" d="M85-63.1c-0.7,11.5-3.1,21.3,4.6,34.6c-10.2-7.9-12.6-25-18.8-36.3c-0.9,14,3.4,29.6,13.8,43.9
		c-11.3-4.3-28.5-19.7-34.3-25.1c0.3,1.6,0.6,3.1,1,4.7c0.9,3.4,2.4,6.6,4.4,9.5c5.2,7.5,11.9,15.1,19.8,19.6
		c-11.7-2.4-20.1-11.5-31.7-14.2C52.3-16.2,67.1,1.1,70.9,6.3c-8.6,0.1-16.8-5.1-28.1-6.8C52.7,7.5,57,19.1,74.4,22.9
		c-0.6,2.4-18.9,1.9-26.3,1.8c7,4.6,17.4,9.7,25.5,11.5c-7.3,2.3-16,1.7-24.9,1.3c8.3,5.2,19.1,4.6,27.4,7
		c-0.4,1.4-12.3,4.9-19.6,5.2c5.3,5.5,13.1,7.7,22.3,8.3c-7.7,5.6-16.2,5.7-25.2,8.6c13.5,1.3,15.1,2.7,32.3,1.1
		c-1.3,2.4-5.3,7.2-7.8,8.5c7.1-2.3,19.2-7.3,25.7-11c-2.6,5.3-7,9.8-12.2,12.5c-6.1,3.2-14.3,5.3-21.1,6.7
		c-10.4,2.2-20.7-0.2-31.1-0.1c-0.6,0-1.3,0.2-1.4,0.7c-0.1,0.4,0.3,0.8,0.7,1.1c3,2.1,2.8,1.9,5.4,4.5c-4.7,0.7-9.6,1.2-13.7,3.4
		c3.4,3.3,12,4.1,15.3,3.6c-0.9,3.7-8.8,4-5.2,6c5.3,3,12.1,2.1,18.1,1.7c9.8-0.6,20.2-9.1,30.2-9.3c11.4-0.3,20.8-0.5,32.3-0.2
		c8.2,0.2,19.1-2.7,25.6-7.6c13.5-10.1,10-11.1,17.1-16.5c5.4-4.1,10.5-5.6,17.1-7c5.8-1.2,11.6,3.1,14.9,1.5
		c-0.8-3.6-5.4-6.4-9.9-8.4c-2.8-5.6-9.7-14.5-22-10.2c-2.6,0.9-9.8,3.2-11.5,1c-0.7-0.9-1.1-2.1-1.9-2.9c-1.1-1.2-2.8-1.5-4.3-2.2
		c-3.7-1.8-5.9-5.7-7-9.6c-1.2-3.9-1.5-8.1-2.9-11.9c-1.7-5.1-5.1-9.7-5.8-15c-0.7-5.7-1.5-12-2.8-17.6c-2.7,3.4-3.9,7.6-3.5,11.4
		c-9.4-10.3-10.4-24.2-9-39.1c-4.1,6.6-6.4,13.2-4.1,20.6c-6.6-8.5-9-17.5-8.9-28.3c0-5.7,1.1-11.4-0.4-16.9
		c-4.9,11.6-6.3,23.6-1.4,36.7C88.3-36.5,88.4-54.1,85-63.1z"/>
</g>
</svg>
