<?xml version="1.0" encoding="utf-8"?>
<!-- Generator: Adobe Illustrator 16.0.0, SVG Export Plug-In . SVG Version: 6.00 Build 0)  -->
<!DOCTYPE svg PUBLIC "-//W3C//DTD SVG 1.1//EN" "http://www.w3.org/Graphics/SVG/1.1/DTD/svg11.dtd">
<svg version="1.1" id="Layer_1" xmlns="http://www.w3.org/2000/svg" xmlns:xlink="http://www.w3.org/1999/xlink" x="0px" y="0px"
	 width="40px" height="40px" viewBox="0 0 40 40" enable-background="new 0 0 40 40" xml:space="preserve">
<path fill-rule="evenodd" clip-rule="evenodd" fill="#F47527" d="M5.001,0H35c2.762,0,5,2.238,5,5v30c0,2.762-2.238,5-5,5H5.001
	c-2.762,0-5-2.238-5-5V5C0.001,2.238,2.239,0,5.001,0z"/>
<path fill="#FFFFFF" d="M31.514,12.177c0,1.045-0.847,1.893-1.892,1.893h-1.798c-1.045,0-1.893-0.848-1.893-1.893v-1.798
	c0-1.045,0.848-1.893,1.893-1.893h1.798c1.045,0,1.893,0.848,1.893,1.893L31.514,12.177L31.514,12.177z M31.514,29.62
	c0,1.045-0.972,1.894-2.017,1.894h-18.92c-1.046,0-2.091-0.849-2.091-1.894v-9.46c0-1.045,1.045-1.904,2.091-1.904
	c0,0,0.479,0,1.069,0c0.074,0,0.145,0.007,0.211,0.02c0.398,0.075,0.654,0.364,0.682,0.734c0.005,0.062,0.003,0.125-0.006,0.19
	c-0.007,0.044,0.098,0.091,0.093,0.135c-0.031,0.271,0.048,0.544,0.048,0.822c0,0,0,0.001,0,0.002c0,4.132,3.212,7.485,7.326,7.561
	c-0.046,0.001-0.143,0.007-0.189,0.007c0.047,0,0.066-0.006,0.113-0.007c0.046,0.001,0.079,0.007,0.126,0.007
	c4.18,0,7.561-3.389,7.562-7.567c0-0.277-0.027-0.554-0.059-0.823c-0.006-0.045-0.004-0.092-0.01-0.135
	c-0.009-0.066-0.012-0.129-0.008-0.191c0.027-0.37,0.283-0.66,0.682-0.734c0.066-0.013,0.136-0.02,0.211-0.02h1.069
	c1.045,0,2.017,0.859,2.017,1.905V29.62L31.514,29.62z M16.253,20.16c0,0,0.3-3.784,3.784-3.784c3.483,0,3.783,3.784,3.783,3.784
	s0.11,3.784-3.783,3.784S16.253,20.16,16.253,20.16z M31.22,4.998H8.781c-2.09,0-3.783,1.694-3.783,3.783v22.438
	c0,2.09,1.693,3.784,3.783,3.784H31.22c2.089,0,3.782-1.694,3.782-3.784V8.781C35.003,6.692,33.309,4.998,31.22,4.998"/>
</svg>
