<?xml version="1.0" encoding="utf-8"?>
<!-- Generator: Adobe Illustrator 16.0.0, SVG Export Plug-In . SVG Version: 6.00 Build 0)  -->
<!DOCTYPE svg PUBLIC "-//W3C//DTD SVG 1.1//EN" "http://www.w3.org/Graphics/SVG/1.1/DTD/svg11.dtd">
<svg version="1.1" id="Layer_1" xmlns="http://www.w3.org/2000/svg" xmlns:xlink="http://www.w3.org/1999/xlink" x="0px" y="0px"
	 width="40px" height="40px" viewBox="0 0 40 40" enable-background="new 0 0 40 40" xml:space="preserve">
<path fill-rule="evenodd" clip-rule="evenodd" fill="#F47527" d="M5,0h30c2.762,0,5,2.238,5,5v30c0,2.762-2.238,5-5,5H5
	c-2.762,0-5-2.238-5-5V5C0,2.238,2.238,0,5,0z"/>
<path fill="#FFFFFF" d="M31.534,13.979c0.012,0.258,0.018,0.518,0.018,0.781c0,8.005-5.985,17.238-16.931,17.238
	c-3.361,0-6.487-1.004-9.122-2.723c0.468,0.055,0.941,0.082,1.419,0.082c2.791,0,5.354-0.965,7.39-2.59
	c-2.602-0.051-4.8-1.801-5.557-4.209c0.363,0.072,0.734,0.109,1.12,0.109c0.543,0,1.068-0.072,1.566-0.213
	c-2.72-0.557-4.773-3.005-4.773-5.939c0-0.025,0-0.051,0-0.076c0.804,0.455,1.721,0.727,2.696,0.758
	c-1.596-1.084-2.646-2.941-2.646-5.043c0-1.109,0.293-2.15,0.805-3.046c2.934,3.666,7.32,6.078,12.264,6.33
	c-0.1-0.443-0.153-0.904-0.153-1.379c0-3.346,2.663-6.057,5.952-6.057c1.71,0,3.257,0.735,4.34,1.91
	c1.354-0.271,2.63-0.775,3.78-1.469c-0.446,1.415-1.388,2.602-2.616,3.35c1.203-0.145,2.351-0.471,3.415-0.951
	C33.704,12.057,32.696,13.124,31.534,13.979z"/>
</svg>
