<?xml version="1.0" encoding="utf-8"?>
<!-- Generator: Adobe Illustrator 16.0.0, SVG Export Plug-In . SVG Version: 6.00 Build 0)  -->
<!DOCTYPE svg PUBLIC "-//W3C//DTD SVG 1.1//EN" "http://www.w3.org/Graphics/SVG/1.1/DTD/svg11.dtd">
<svg version="1.1" id="Layer_1" xmlns="http://www.w3.org/2000/svg" xmlns:xlink="http://www.w3.org/1999/xlink" x="0px" y="0px"
	 width="40px" height="40px" viewBox="0 0 40 40" enable-background="new 0 0 40 40" xml:space="preserve">
<path fill-rule="evenodd" clip-rule="evenodd" fill="#F47527" d="M5.001,0H35c2.762,0,5,2.238,5,5v30c0,2.762-2.238,5-5,5H5.001
	c-2.762,0-5-2.238-5-5V5C0.001,2.238,2.239,0,5.001,0z"/>
<path fill="#FFFFFF" d="M22.211,14.228c3.426-1.964,5.258,0.8,3.501,3.928c-1.75,3.127-3.351,5.164-4.188,5.164
	c-0.838,0-1.48-2.092-2.438-5.748c-0.992-3.779-0.986-10.588-5.104-9.816c-3.881,0.729-8.984,6.547-8.984,6.547l1.219,1.525
	c0,0,2.514-1.891,3.352-0.945c0.836,0.945,4.033,12.367,5.102,14.473c0.932,1.847,3.502,4.291,6.322,2.546
	c2.816-1.745,12.183-9.38,13.86-18.399C36.529,4.484,23.582,6.374,22.211,14.228z"/>
</svg>
